<?xml version="1.0" standalone="no"?>
<!DOCTYPE svg PUBLIC "-//W3C//DTD SVG 1.1//EN" "http://www.w3.org/Graphics/SVG/1.1/DTD/svg11.dtd" >
<svg>
<metadata>
Created by FontForge 20090914 at Thu Jan 16 07:45:12 2014
 By www-data
Futura is a registered trademark of Fundicion Tipografica Neufville S. A.
</metadata>
<defs>
<font id="FuturaLT-LightOblique" horiz-adv-x="620" >
  <font-face 
    font-family="Futura LT"
    font-weight="200"
    font-style="oblique"
    font-stretch="normal"
    units-per-em="1000"
    panose-1="2 0 3 3 0 0 0 0 0 0"
    ascent="800"
    descent="-200"
    x-height="462"
    cap-height="754"
    bbox="-175 -302.001 1246 971"
    underline-thickness="50"
    underline-position="-100"
    slope="-9"
    unicode-range="U+0020-U+FFFD"
  />
<missing-glyph horiz-adv-x="310" 
 />
    <glyph glyph-name=".notdef" unicode="&#xfffd;" horiz-adv-x="310" 
 />
    <glyph glyph-name="space" unicode=" " horiz-adv-x="310" 
 />
    <glyph glyph-name="exclam" unicode="!" horiz-adv-x="320" 
d="M171.5 72c11.667 0 20.834 -4 27.501 -12s9 -17.667 7 -29s-7.5 -21 -16.5 -29s-19.333 -12 -31 -12s-20.834 4 -27.501 12s-9 17.667 -7 29s7.5 21 16.5 29s19.333 12 31 12zM159 143l96 611h48l-96 -611h-48z" />
    <glyph glyph-name="quotedbl" unicode="&#x22;" horiz-adv-x="278" 
d="M177 754h48l-49 -240h-27zM291 754h48l-49 -240h-27z" />
    <glyph glyph-name="numbersign" unicode="#" 
d="M580 276l-8 -48h-126l-73 -228h-46l72 228h-135l-69 -228h-48l69 228h-121l8 48h128l48 162h-123l8 48h130l66 212h50l-66 -212h136l66 212h50l-67 -212h110l-8 -48h-118l-51 -162h118zM464 438h-136l-49 -162h136z" />
    <glyph glyph-name="dollar" unicode="$" 
d="M404 362l-51.002 -321.999c42.667 10 80 31.167 112 63.5s51.333 69.166 58 110.499c2.66699 15.333 1.83398 30 -2.49902 44s-9.66602 25.5 -15.999 34.5s-16.5 18.5 -30.5 28.5s-25 17.167 -33 21.5zM370.998 437.001l43.999 279.001
c-35.333 0 -67.666 -14.333 -96.999 -43s-47 -61.334 -53 -98.001c-2.66699 -17.333 -2 -32.833 2 -46.5s12 -26 24 -37s22.5 -19.5 31.5 -25.5s22.167 -14 39.5 -24c4 -2 7 -3.66699 9 -5zM307.997 38.002l54.9971 346.004c-2.66699 1.33301 -7 3.66602 -13 6.99902
l-44 24.5c-10 5.66699 -22.667 14.5 -38 26.5s-26.333 23.5 -33 34.5s-12.167 25 -16.5 42s-4.83301 35.167 -1.5 54.5c8 53.333 31 97.5 69 132.5s83.667 54.5 137 58.5l17 105h45l-17 -107c30.667 -4 58.334 -15.333 83.001 -34s42.334 -42 53.001 -70l-42 -30
c-9.33301 23.333 -22.666 43.166 -39.999 59.499s-38 25.833 -62 28.5l-47 -300c5.33301 -2.66699 13.333 -7 24 -13l23.5 -13c5 -2.66699 12.333 -6.83398 22 -12.501s16.834 -10.334 21.501 -14.001l18.5 -14.5c7.66699 -6 13.5 -11.5 17.5 -16.5s8.5 -11 13.5 -18
s8.66699 -14.167 11 -21.5s4.33301 -15.333 6 -24s2.5 -18 2.5 -28s-1 -20.333 -3 -31c-8 -52.667 -33.833 -99.667 -77.5 -141s-92.5 -67 -146.5 -77l-18 -113h-45l17 111c-51.333 1.33301 -93.833 16.333 -127.5 45s-55.5 68 -65.5 118l44 19
c9.33301 -40.667 27.666 -73.667 54.999 -99s61.333 -37 102 -35z" />
    <glyph glyph-name="percent" unicode="%" horiz-adv-x="664" 
d="M300.5 761c43 0 76.832 -14 101.499 -42s33.667 -63.667 27 -107c-6.66699 -42 -27 -77 -61 -105s-72.167 -42 -114.5 -42s-76 14 -101 42s-34.167 63 -27.5 105c6.66699 43.333 26.834 79 60.501 107s72 42 115 42zM293.999 719c-30 0 -57.502 -10.333 -82.502 -31
s-39.833 -46 -44.5 -76c-4.66699 -28.667 2.33301 -53.334 21 -74.001s42.834 -31 72.501 -31s57 10.333 82 31s39.833 45.334 44.5 74.001c4.66699 30 -2.16602 55.333 -20.499 76s-42.5 31 -72.5 31zM659.997 771l30 -17l-570 -771l-28 18zM529.497 289
c43 0 76.834 -14 101.501 -42s33.667 -63.667 27 -107c-6.66699 -42 -26.834 -77 -60.501 -105s-71.834 -42 -114.501 -42s-76.5 14 -101.5 42s-34.167 63 -27.5 105c6.66699 43.333 26.834 79 60.501 107s72 42 115 42zM522.998 247c-30 0 -57.502 -10.333 -82.502 -31
s-39.833 -46 -44.5 -76c-4.66699 -28.667 2.33301 -53.334 21 -74.001s42.834 -31 72.501 -31s57 10.333 82 31s39.833 45.334 44.5 74.001c4.66699 30 -2.16602 55.333 -20.499 76s-42.5 31 -72.5 31z" />
    <glyph glyph-name="ampersand" unicode="&#x26;" horiz-adv-x="642" 
d="M431 723c-27.333 0 -52.002 -10.6709 -74.002 -32.0039s-35 -45.666 -39 -72.999c-2 -12.667 -1.66699 -25.667 1 -39s6 -24.333 10 -33s9.83301 -20.167 17.5 -34.5s13.167 -25.166 16.5 -32.499c7.33301 5.33301 19.333 13.333 36 24s29.334 19.334 38.001 26.001
s18.834 15.334 30.501 26.001s20.667 22 27 34s10.833 25.333 13.5 40c4 26 -1.5 48.167 -16.5 66.5s-35.167 27.5 -60.5 27.5zM591.998 -0.00390625l-75 125.004c-58 -43.333 -111.5 -77.5 -160.5 -102.5s-95.5 -37.5 -139.5 -37.5c-55.333 0 -99 19.5 -131 58.5
s-43.667 85.833 -35 140.5c2.66699 18 8.16699 35.833 16.5 53.5s17 33.167 26 46.5s22 27.666 39 42.999l42 37c11 9.33301 27.667 21 50 35s38.5 23.833 48.5 29.5l51 29.5c-2.66699 4 -6 9.5 -10 16.5l-9.5 17l-9 16.5c-3.66699 6.66699 -6.5 12.5 -8.5 17.5l-7 17.5
c-2.66699 6.66699 -4.66699 13 -6 19s-2.5 12.5 -3.5 19.5s-1.5 13.833 -1.5 20.5s0.666992 13.667 2 21c6 40 25.833 74.167 59.5 102.5s70.5 42.5 110.5 42.5c38.667 0 69 -13.667 91 -41s29.667 -60.333 23 -99c-2.66699 -20.667 -9 -39.834 -19 -57.501
s-23.833 -34.334 -41.5 -50.001s-34 -28.834 -49 -39.501s-35.167 -23.667 -60.5 -39l146 -254l112 105l34 -20l-124 -120l91 -153h-52zM345.998 420l-53.999 -32.002l-49.5 -29.5c-12.333 -7.66699 -28 -18.5 -47 -32.5s-34 -27.167 -45 -39.5s-21.5 -27.166 -31.5 -44.499
s-16.333 -35 -19 -53c-6.66699 -43.333 1.5 -80.666 24.5 -111.999s56.167 -47 99.5 -47c20.667 0 42.667 3.83301 66 11.5s48.166 19.167 74.499 34.5s48 28.833 65 40.5l65.5 46.5z" />
    <glyph glyph-name="quotesingle" unicode="'" horiz-adv-x="222" 
d="M206 754h48l-49 -240h-27z" />
    <glyph glyph-name="parenleft" unicode="(" horiz-adv-x="240" 
d="M261 780l31.998 -26.001c-65.333 -148.667 -110.333 -301.667 -135 -459c-23.333 -146.667 -26 -295.667 -8 -447l-41 -25c-9.33301 41.333 -15 91 -17 149s-1 114 3 168s10 105.667 18 155c12.667 82.667 31.834 168.834 57.501 258.501s55.834 165.167 90.501 226.5z
" />
    <glyph glyph-name="parenright" unicode=")" horiz-adv-x="240" 
d="M185 754l42.001 25.999c10 -42 15.667 -93.167 17 -153.5s-0.166992 -117.666 -4.5 -171.999s-10.5 -107.5 -18.5 -159.5c-12.667 -78.667 -31.834 -162 -57.501 -250s-55.167 -162 -88.5 -222l-33 25c66 151.333 110.667 300.333 134 447
c24.667 157.333 27.667 310.333 9 459z" />
    <glyph glyph-name="asterisk" unicode="*" horiz-adv-x="619" 
d="M385 604l19 150h49l-27 -150l150 50l7 -47l-151 -43l73 -119l-44 -29l-65 124l-106 -124l-35 28l110 120l-137 43l23 47z" />
    <glyph glyph-name="plus" unicode="+" 
d="M330 280l37 232h48l-37 -232h232l-7 -48h-232l-37 -232h-48l37 232h-232l7 48h232z" />
    <glyph glyph-name="comma" unicode="," horiz-adv-x="310" 
d="M165 74l43 -14l-119 -226l-29 11z" />
    <glyph glyph-name="hyphenminus" unicode="-" horiz-adv-x="190" 
d="M54 342h190l-7 -45h-190z" />
    <glyph glyph-name="period" unicode="." horiz-adv-x="310" 
d="M166.5 72c11.667 0 20.834 -4 27.501 -12s9 -17.667 7 -29s-7.5 -21 -16.5 -29s-19.333 -12 -31 -12s-20.834 4 -27.501 12s-9 17.667 -7 29s7.5 21 16.5 29s19.333 12 31 12z" />
    <glyph glyph-name="slash" unicode="/" horiz-adv-x="640" 
d="M701 825l32 -18l-683 -949l-34 19z" />
    <glyph glyph-name="zero" unicode="0" 
d="M431 764c30 0 57.5029 -5.83301 82.5029 -17.5s45.5 -27.167 61.5 -46.5s30 -41.833 42 -67.5s20.167 -52.667 24.5 -81s7.16602 -57.166 8.49902 -86.499s-0.333984 -57 -5.00098 -83c-5.33301 -32.667 -14 -66.334 -26 -101.001s-28.167 -69.5 -48.5 -104.5
s-43 -66.167 -68 -93.5s-54.333 -49.666 -88 -66.999s-69.167 -26 -106.5 -26c-30.667 0 -58.5 6 -83.5 18s-45.5 28.333 -61.5 49s-29.833 44.167 -41.5 70.5s-19.5 54.166 -23.5 83.499s-6.5 58.666 -7.5 87.999s1.16699 57 6.5 83
c4.66699 32.667 13.167 66.167 25.5 100.5s28.666 68.333 48.999 102s43 63.834 68 90.501s54.167 48.167 87.5 64.5s68 24.5 104 24.5zM315.503 35c31 0 60.6699 7.6709 89.0029 23.0039s52.833 35.333 73.5 60s39.5 52.5 56.5 83.5s30.5 61.667 40.5 92
s17.333 59.833 22 88.5c2.66699 20.667 4 42.834 4 66.501s-1.66699 48.167 -5 73.5s-9.5 49.666 -18.5 72.999s-20 44.333 -33 63s-29.833 33.5 -50.5 44.5s-44 16.5 -70 16.5c-30.667 0 -60.334 -7.83301 -89.001 -23.5s-53.334 -35.834 -74.001 -60.501
s-39.334 -52.334 -56.001 -83.001s-30 -60.334 -40 -89.001s-16.667 -55.667 -20 -81c-3.33301 -28 -5.5 -57.5 -6.5 -88.5s2.5 -61.833 10.5 -92.5s18.167 -58.334 30.5 -83.001s30.333 -44.667 54 -60s51 -23 82 -23z" />
    <glyph glyph-name="one" unicode="1" 
d="M420 709h-119l30 45h144l-119 -754h-48z" />
    <glyph glyph-name="two" unicode="2" 
d="M183 45l357.998 -0.00195312l-7 -45h-465l330 309c2 2 5.33301 5 10 9l53.5 51.5c13 13 29 30.5 48 52.5s33.833 43.167 44.5 63.5s17.334 40.5 20.001 60.5c8 48.667 -2.83301 89.667 -32.5 123s-68.834 50 -117.501 50c-52 0 -97.667 -16.833 -137 -50.5
s-62.333 -76.167 -69 -127.5h-48c6 30.667 14 57.167 24 79.5s25 43.5 45 63.5c26 24.667 56.333 44.167 91 58.5s68.334 21.5 101.001 21.5c62.667 0 112.667 -21.167 150 -63.5s51 -94.833 41 -157.5c-3.33301 -19.333 -9.66602 -39.166 -18.999 -59.499
s-18.833 -37.666 -28.5 -51.999s-24 -31.833 -43 -52.5s-33.5 -35.667 -43.5 -45l-48 -45z" />
    <glyph glyph-name="three" unicode="3" 
d="M361 370l7.00684 45c45.333 1.33301 85.666 16.5 120.999 45.5s56.666 66.167 63.999 111.5c6 40.667 -3.33301 75.334 -28 104.001s-57.334 43 -98.001 43c-43.333 0 -80 -13 -110 -39s-49.667 -60.667 -59 -104h-48c13.333 58 39.666 103.833 78.999 137.5
s88 50.5 146 50.5c54 0 97.167 -18.833 129.5 -56.5s44.166 -83.5 35.499 -137.5c-6 -38.667 -21.5 -73.667 -46.5 -105s-56.167 -54.666 -93.5 -69.999c34.667 -14 60.667 -38 78 -72s23 -71 17 -111c-10 -62.667 -39.5 -115.334 -88.5 -158.001s-105.167 -64 -168.5 -64
c-58 0 -104.5 18.333 -139.5 55s-47.833 83.334 -38.5 140.001h48c-2.66699 -44.667 8.16602 -80.834 32.499 -108.501s59.166 -41.5 104.499 -41.5c47.333 0 90.833 17.167 130.5 51.5s63.167 75.166 70.5 122.499c7.33301 48 -3 86.833 -31 116.5s-66 44.5 -114 44.5z" />
    <glyph glyph-name="four" unicode="4" 
d="M497 188h106l-7 -45h-106l-23 -143h-48l23 143h-407l1 6l549 631h6zM449 188l70 446h-6l-382 -440l-1 -6h319z" />
    <glyph glyph-name="five" unicode="5" 
d="M643 709l-252.001 0.000976562l-95 -204c18 5.33301 37.333 8 58 8c72.667 0 129.667 -24.833 171 -74.5s56.333 -110.5 45 -182.5c-12.667 -76.667 -49.167 -140.167 -109.5 -190.5s-128.833 -75.5 -205.5 -75.5c-45.333 0 -86 11.167 -122 33.5s-63 52.833 -81 91.5
l47 18c14.667 -30 37 -53.833 67 -71.5s62.667 -26.5 98 -26.5c62.667 0 118.834 21.167 168.501 63.5s79.5 95.166 89.5 158.499c9.33301 59.333 -4.5 109.333 -41.5 150s-85.5 61 -145.5 61c-38.667 0 -78.667 -11.333 -120 -34l148 320h287z" />
    <glyph glyph-name="six" unicode="6" 
d="M461 764l34.001 -28.999l-203 -235l2 -2c34 13.333 68.333 20 103 20c72 0 129.667 -26.167 173 -78.5s59.333 -114.5 48 -186.5c-10.667 -66 -45.334 -126.333 -104.001 -181c-59.333 -54.667 -128.333 -82 -207 -82c-73.333 0 -132 25.5 -176 76.5
s-60.333 113.167 -49 186.5c9.33301 59.333 36.333 114.666 81 165.999zM316.001 35.001c60 0 115.001 21.501 165.001 64.501s79.667 94.5 89 154.5s-4.16699 111.5 -40.5 154.5s-84.5 64.5 -144.5 64.5c-60.667 0 -115.834 -21.5 -165.501 -64.5s-79.5 -94.5 -89.5 -154.5
c-9.33301 -60.667 4.16699 -112.334 40.5 -155.001s84.833 -64 145.5 -64z" />
    <glyph glyph-name="seven" unicode="7" 
d="M640 709h-458l7 45h547l-660 -762l-33 29z" />
    <glyph glyph-name="eight" unicode="8" 
d="M368 369c-46.667 0 -89.3301 -16.333 -127.997 -49s-61.667 -72 -69 -118s3.16699 -85.333 31.5 -118s66.166 -49 113.499 -49c46 0 88.5 16.333 127.5 49s62.167 72 69.5 118s-3.33398 85.333 -32.001 118s-66.334 49 -113.001 49zM308.004 -10
c-60 0 -108.336 19.667 -145.003 59s-50.334 88.666 -41.001 147.999c14.667 91.333 66 156.666 154 195.999c-29.333 16 -51.166 39.667 -65.499 71s-18.833 65 -13.5 101c9.33301 56.667 36.333 104 81 142s95.667 57 153 57s102.333 -19 135 -57
s44.334 -85.333 35.001 -142c-5.33301 -36 -20.166 -69.667 -44.499 -101s-53.833 -55 -88.5 -71c76 -39.333 106.667 -104.666 92 -195.999c-9.33301 -59.333 -38.666 -108.666 -87.999 -147.999s-104 -59 -164 -59zM424.001 719c-42 0 -80.499 -15 -115.499 -45
s-55.833 -66 -62.5 -108s2.66602 -77.833 27.999 -107.5s59.333 -44.5 102 -44.5c42 0 80.5 14.833 115.5 44.5s55.833 65.5 62.5 107.5s-3 78 -29 108s-59.667 45 -101 45z" />
    <glyph glyph-name="nine" unicode="9" 
d="M279 -8l-34.999 29l205 235l-2 2c-35.333 -13.333 -70 -20 -104 -20c-72 0 -129.833 26 -173.5 78s-59.5 114 -47.5 186c11.333 72.667 47.5 134.5 108.5 185.5s128.167 76.5 201.5 76.5c75.333 0 134.666 -25.667 177.999 -77s59 -114.666 47 -189.999
c-8.66699 -54.667 -35.667 -108.334 -81 -161.001zM424.501 719c-60.333 0 -115.501 -21.333 -165.501 -64s-80 -94 -90 -154c-9.33301 -60 4.5 -111.333 41.5 -154s85.5 -64 145.5 -64s114.833 21.333 164.5 64s79.167 94 88.5 154c10 60 -3.16699 111.333 -39.5 154
s-84.666 64 -144.999 64z" />
    <glyph glyph-name="colon" unicode=":" horiz-adv-x="310" 
d="M166.5 72c11.667 0 20.834 -4 27.501 -12s9 -17.667 7 -29s-7.5 -21 -16.5 -29s-19.333 -12 -31 -12s-20.834 4 -27.501 12s-9 17.667 -7 29s7.5 21 16.5 29s19.333 12 31 12zM230 472c11.333 0 20.333 -4 27 -12s9.16699 -17.667 7.5 -29s-7.16699 -21 -16.5 -29
s-19.666 -12 -30.999 -12s-20.333 4 -27 12s-9.16699 17.667 -7.5 29s7.16699 21 16.5 29s19.666 12 30.999 12z" />
    <glyph glyph-name="semicolon" unicode=";" horiz-adv-x="310" 
d="M165 74l43 -14l-119 -226l-29 11zM236 472c11.333 0 20.333 -4 27 -12s9.16699 -17.667 7.5 -29s-7.16699 -21 -16.5 -29s-19.666 -12 -30.999 -12s-20.333 4 -27 12s-9.16699 17.667 -7.5 29s7.16699 21 16.5 29s19.666 12 30.999 12z" />
    <glyph glyph-name="less" unicode="&#x3c;" 
d="M147 256l425 -215l-7 -46l-475 235l9 53l547 223l-7 -46z" />
    <glyph glyph-name="equal" unicode="=" 
d="M624 365l-8 -48h-512l8 48h512zM597 195l-8 -48h-512l8 48h512z" />
    <glyph glyph-name="greater" unicode="&#x3e;" 
d="M60 41l495 215l-428 204l7 46l477 -223l-9 -53l-549 -235z" />
    <glyph glyph-name="question" unicode="?" horiz-adv-x="491" 
d="M402 303l47.9971 0.00195312c-5.33301 -46 -25 -84.333 -59 -115s-75 -46 -123 -46c-43.333 0 -78.166 14.167 -104.499 42.5s-36.166 63.833 -29.499 106.5c6.66699 43.333 24.5 76.833 53.5 100.5s66.833 41.167 113.5 52.5l50.5 13.5c11 3 24.667 8.16699 41 15.5
s28.666 15.333 36.999 24s16.333 20.167 24 34.5s12.834 31.166 15.501 50.499c6 38 -1.33301 70.333 -22 97s-50.334 40 -89.001 40c-37.333 0 -70.333 -12.167 -99 -36.5s-45.667 -54.5 -51 -90.5c-3.33301 -21.333 -4.66602 -39 -3.99902 -53h-46
c-0.666992 24.667 0.666016 46 3.99902 64c7.33301 46.667 31 85.167 71 115.5s84.333 45.5 133 45.5c53.333 0 94 -16.833 122 -50.5s37.833 -76.834 29.5 -129.501s-28.5 -92.167 -60.5 -118.5s-76.667 -46.5 -134 -60.5c-16.667 -4 -29.667 -7.33301 -39 -10
s-20.833 -7 -34.5 -13s-24.167 -12.5 -31.5 -19.5s-14.5 -16.333 -21.5 -28s-11.5 -25.167 -13.5 -40.5c-5.33301 -31.333 1 -57 19 -77s43.333 -30 76 -30s60.334 11.5 83.001 34.5s36.334 50.167 41.001 81.5zM254.497 72.002c11.667 0 20.834 -4 27.501 -12
s9 -17.667 7 -29s-7.5 -21 -16.5 -29s-19.333 -12 -31 -12s-20.834 4 -27.501 12s-9 17.667 -7 29s7.5 21 16.5 29s19.333 12 31 12z" />
    <glyph glyph-name="at" unicode="@" horiz-adv-x="800" 
d="M368 193c30.667 0.666992 61.498 13.333 92.498 38s53.167 51.667 66.5 81l71 147c9.33301 20.667 5.83301 43.667 -10.5 69s-41.166 38 -74.499 38s-67.666 -14.833 -102.999 -44.5s-64.666 -64.667 -87.999 -105s-37.666 -77.833 -42.999 -112.5
c-4.66699 -31.333 0.666016 -57.833 15.999 -79.5s39.666 -32.167 72.999 -31.5zM636.998 540.999l22.0039 47.0029h44l-154 -324l-9.5 -21c-2.33301 -5.33301 -4.16602 -11.666 -5.49902 -18.999s-1 -12.833 1 -16.5s6 -7 12 -10s14.333 -4.5 25 -4.5
c26.667 0 56 13.333 88 40s60 59.667 84 99s38.667 77 44 113c6.66699 40 4.16699 77.667 -7.5 113s-29.667 64.666 -54 87.999s-53.5 41.833 -87.5 55.5s-70 20.5 -108 20.5c-60 0 -118.5 -16.167 -175.5 -48.5s-104.5 -75.333 -142.5 -129s-62 -110.834 -72 -171.501
c-9.33301 -60.667 -2.66602 -117.334 20.001 -170.001s57.5 -94.334 104.5 -125.001s99.833 -46 158.5 -46c57.333 0 112.166 11.667 164.499 35s95.833 57 130.5 101h56c-37.333 -54 -87.5 -97.167 -150.5 -129.5s-132.167 -48.5 -207.5 -48.5
c-70 0 -131.333 17.5 -184 52.5s-90.834 82.333 -114.501 142s-29.834 124.834 -18.501 195.501c11.333 69.333 38.666 133.666 81.999 192.999s96.5 106 159.5 140s127.833 51 194.5 51c63.333 0 119.166 -13.833 167.499 -41.5s83.833 -66.167 106.5 -115.5
s29.334 -104.666 20.001 -165.999c-8 -51.333 -27.667 -99.833 -59 -145.5s-66.833 -81.167 -106.5 -106.5s-77.5 -38 -113.5 -38c-18 0 -33.167 4.33301 -45.5 13s-19.5 20.667 -21.5 36c-43.333 -32.667 -89.333 -49 -138 -49c-42 0 -72.5 13.833 -91.5 41.5
s-25.167 62.834 -18.5 105.501c5.33301 34.667 16.666 70.167 33.999 106.5s38.666 69.666 63.999 99.999s55 55.166 89 74.499s68.667 29 104 29c24 0 45.667 -5.83301 65 -17.5s34.333 -28.167 45 -49.5z" />
    <glyph glyph-name="A" unicode="A" horiz-adv-x="641" 
d="M525 248h-331l-140 -248h-49l439 779l192 -779h-49zM514 293l-89 364l-206 -364h295z" />
    <glyph glyph-name="B" unicode="B" horiz-adv-x="565" 
d="M187 367l-51.001 -322.001h115c26.667 0 45.5 0.166992 56.5 0.5s26.833 2.83301 47.5 7.5s39 11.667 55 21c54.667 33.333 86.334 78 95.001 134c4.66699 28.667 2.16699 55.334 -7.5 80.001s-26.167 43 -49.5 55c-29.333 16 -81 24 -155 24h-106zM273.999 -0.000976562
l-193.001 0.000976562l119 754h151c34.667 0 63.834 -2.83301 87.501 -8.5s44.167 -17.5 61.5 -35.5c36.667 -36.667 49.667 -88.667 39 -156c-11.333 -70 -48.666 -121.333 -111.999 -154c45.333 -9.33301 79.666 -31.333 102.999 -66s31 -76 23 -124
c-10 -64 -41.333 -116 -94 -156c-28 -20.667 -56.5 -34.834 -85.5 -42.501s-62.167 -11.5 -99.5 -11.5zM240.998 709l-47 -296.999h83h16.5h16.5c2 0 7 0.166992 15 0.5s13.333 0.666016 16 0.999023s7.33398 1 14.001 2s12 2.16699 16 3.5l14.5 5
c5.66699 2 11 4.33301 16 7s10.167 5.66699 15.5 9c22.667 14.667 39.667 31.667 51 51s19.333 42.666 24 69.999c8.66699 56.667 -5.33301 98 -42 124c-10.667 7.33301 -23.834 12.833 -39.501 16.5s-29 5.83398 -40 6.50098s-26.5 1 -46.5 1h-83z" />
    <glyph glyph-name="C" unicode="C" horiz-adv-x="739" 
d="M785 666l-9.99902 -66.0029c-23.333 35.333 -56.5 64 -99.5 86s-87.833 33 -134.5 33c-61.333 0 -121 -16 -179 -48s-106.667 -74.667 -146 -128s-63.666 -110.333 -72.999 -171c-6.66699 -43.333 -4.33398 -85.166 6.99902 -125.499s30.333 -76.166 57 -107.499
c28 -31.333 61.833 -56.5 101.5 -75.5s81.167 -28.5 124.5 -28.5c44 0 91.833 10.833 143.5 32.5s94.167 49.167 127.5 82.5l-11 -66c-85.333 -62.667 -174 -94 -266 -94c-51.333 0 -99.5 10.333 -144.5 31s-82.5 48.167 -112.5 82.5s-52 75.5 -66 123.5
s-16.667 97.667 -8 149c10.667 70 38.667 134.833 84 194.5s101 106.834 167 141.501s134 52 204 52c45.333 0 88.666 -8.66699 129.999 -26s76 -41.333 104 -72z" />
    <glyph glyph-name="D" unicode="D" horiz-adv-x="652" 
d="M81 0l118.999 754.003h136c60 0 110.833 -6.83301 152.5 -20.5s79.167 -38.5 112.5 -74.5c33.333 -36.667 56.5 -79.334 69.5 -128.001s15.167 -100.334 6.5 -155.001c-8.66699 -52.667 -26.667 -102.834 -54 -150.501s-62.666 -89.5 -105.999 -125.5
c-45.333 -38 -91.5 -64.167 -138.5 -78.5s-100.833 -21.5 -161.5 -21.5h-136zM135.999 45.0029l87.002 -0.000976562c53.333 0 101.333 6.66699 144 20s84 37 124 71c36.667 32 67 68.833 91 110.5s39.667 84.834 47 129.501c7.33301 48 5.16602 93.833 -6.50098 137.5
s-32.834 81.5 -63.501 113.5c-28.667 30.667 -61.667 52 -99 64s-81.333 18 -132 18h-87z" />
    <glyph glyph-name="E" unicode="E" horiz-adv-x="507" 
d="M553 709h-312l-43 -274h304l-7 -45h-304l-55 -345h312l-7 -45h-360l119 754h360z" />
    <glyph glyph-name="F" unicode="F" horiz-adv-x="444" 
d="M497 709h-256l-43 -274h249l-7 -45h-249l-62 -390h-48l119 754h304z" />
    <glyph glyph-name="G" unicode="G" horiz-adv-x="824" 
d="M527 363l318.003 0.000976562c-6.66699 -52.667 -18.834 -99.167 -36.501 -139.5s-44.834 -77.5 -81.501 -111.5c-42 -38.667 -90 -68.667 -144 -90s-108 -32 -162 -32c-68 0 -129.167 17.333 -183.5 52s-94.333 81.667 -120 141s-33.167 123 -22.5 191
c11.333 70.667 39.333 136 84 196s100 107.333 166 142s134.333 52 205 52c66.667 0 125.167 -15.333 175.5 -46s91.5 -74 123.5 -130l-44 -31c-26 51.333 -61.667 91.166 -107 119.499s-98 42.5 -158 42.5s-119 -15.833 -177 -47.5s-106.667 -73.834 -146 -126.501
s-63.666 -108.667 -72.999 -168c-10 -61.333 -3.83301 -118.166 18.5 -170.499s57.333 -94 105 -125s102.5 -46.5 164.5 -46.5c79.333 0 157.666 27.667 234.999 83c35.333 26.667 62.666 56 81.999 88s33 69.333 41 112h-270z" />
    <glyph glyph-name="H" unicode="H" horiz-adv-x="716" 
d="M198 434h458l50 320h48l-119 -754h-48l62 389h-458l-62 -389h-48l119 754h48z" />
    <glyph glyph-name="I" unicode="I" horiz-adv-x="210" 
d="M248 754l-119 -754h-48l119 754h48z" />
    <glyph glyph-name="J" unicode="J" horiz-adv-x="218" 
d="M208 754l47.999 0.000976562l-117 -740c-4 -25.333 -9.33301 -47.666 -16 -66.999s-16 -37.333 -28 -54s-27.667 -29.334 -47 -38.001s-42.333 -13 -69 -13c-27.333 0 -50.833 7.5 -70.5 22.5s-33.5 34.833 -41.5 59.5l40 27c6 -18.667 16.5 -34 31.5 -46
s32.167 -18 51.5 -18c18 0 33.333 3.66699 46 11s22.5 18 29.5 32s12.333 27.167 16 39.5s6.83398 27.166 9.50098 44.499z" />
    <glyph glyph-name="K" unicode="K" horiz-adv-x="569" 
d="M193 402l413 352h64l-426 -363l330 -391h-63l-305 360l-23 -20l-54 -340h-48l119 754h48z" />
    <glyph glyph-name="L" unicode="L" horiz-adv-x="327" 
d="M248 754l-112 -709h192l-7 -45h-240l119 754h48z" />
    <glyph glyph-name="M" unicode="M" horiz-adv-x="897" 
d="M842 0l-30 624h-2l-366 -649l-159 649h-2l-228 -624h-46l285 779l169 -686l386 686l39 -779h-46z" />
    <glyph glyph-name="N" unicode="N" horiz-adv-x="843" 
d="M881 754l-123 -779l-526 673l-103 -648h-48l121 764l527 -668l104 658h48z" />
    <glyph glyph-name="O" unicode="O" horiz-adv-x="854" 
d="M548 764c69.333 0 131.335 -17.333 186.002 -52s95 -81.834 121 -141.501s33.5 -124.167 22.5 -193.5s-38.833 -133.833 -83.5 -193.5s-99.834 -106.834 -165.501 -141.501s-133.334 -52 -203.001 -52s-131.834 17.333 -186.501 52s-95 81.834 -121 141.501
s-33.5 124.167 -22.5 193.5s38.833 133.833 83.5 193.5s99.834 106.834 165.501 141.501s133.5 52 203.5 52zM541.002 719c-61.333 0 -120.832 -15.5039 -178.499 -46.5039s-106.167 -72.667 -145.5 -125s-63.833 -109.166 -73.5 -170.499s-3.16699 -118.166 19.5 -170.499
s57.834 -94 105.501 -125s102.5 -46.5 164.5 -46.5c60.667 0 120 15.5 178 46.5s106.5 72.833 145.5 125.5s63.5 109.334 73.5 170.001c9.33301 60.667 2.66602 117.334 -20.001 170.001s-57.834 94.5 -105.501 125.5s-102.167 46.5 -163.5 46.5z" />
    <glyph glyph-name="P" unicode="P" horiz-adv-x="472" 
d="M186 358l-57.001 -357.999h-48l119 754h133c36 0 66.5 -2.83301 91.5 -8.5s46.5 -17.5 64.5 -35.5c39.333 -38.667 54 -90.334 44 -155.001c-4.66699 -28 -14.5 -55.667 -29.5 -83s-34.167 -49.333 -57.5 -66c-41.333 -32 -99.666 -48 -174.999 -48h-85zM192.999 403.001
l87.001 -0.000976562c57.333 0 103.333 13.667 138 41c37.333 30 59.666 67.667 66.999 113c4 24 2.83301 47 -3.5 69s-17.5 39.667 -33.5 53c-15.333 12.667 -33 20.834 -53 24.501s-45 5.5 -75 5.5h-79z" />
    <glyph glyph-name="Q" unicode="Q" horiz-adv-x="854" 
d="M569 309l127.002 -165.999c75.333 70 119.666 146 132.999 228c10 62 4.16699 119.667 -17.5 173s-56.334 95.833 -104.001 127.5s-102.834 47.5 -165.501 47.5c-61.333 0 -121 -15.5 -179 -46.5s-106.667 -72.833 -146 -125.5s-63.666 -109.334 -72.999 -170.001
c-10 -62 -3.66699 -119.333 19 -172s58.167 -94.167 106.5 -124.5s103.833 -45.5 166.5 -45.5c73.333 0 147.333 26.333 222 79l-157 195h68zM742.002 0.000976562l-54.9961 80c-38.667 -28 -81 -50 -127 -66s-91 -24 -135 -24c-70 0 -132.333 17.167 -187 51.5
s-94.834 81.166 -120.501 140.499s-32.834 124.333 -21.501 195c10.667 70 38.5 134.833 83.5 194.5s100.333 106.667 166 141s133.5 51.5 203.5 51.5c69.333 0 131.166 -17.167 185.499 -51.5s94.666 -81.166 120.999 -140.499s33.833 -123.333 22.5 -192
c-15.333 -98 -66.333 -189 -153 -273l82 -107h-65z" />
    <glyph glyph-name="R" unicode="R" horiz-adv-x="488" 
d="M264 357l190 -357h-55l-189 357h-24l-57 -357h-48l119 754h94c26.667 0 47.5 -0.5 62.5 -1.5s32.5 -4.5 52.5 -10.5s37 -14.667 51 -26c45.333 -35.333 62.333 -89.333 51 -162c-10 -64 -37.667 -113.167 -83 -147.5s-100 -50.833 -164 -49.5zM193 402h61.0029
c29.333 0 54.666 2.16699 75.999 6.5s41.666 13.833 60.999 28.5c40 28.667 64 68.334 72 119.001c4.66699 29.333 2.16699 56.5 -7.5 81.5s-26.5 43.167 -50.5 54.5c-4.66699 2 -9.83398 4 -15.501 6s-10.5 3.5 -14.5 4.5s-9.83301 2 -17.5 3s-13 1.66699 -16 2
s-9 0.666016 -18 0.999023s-14.5 0.5 -16.5 0.5h-18.5h-16.5h-31z" />
    <glyph glyph-name="S" unicode="S" horiz-adv-x="544" 
d="M568 658l-38.0029 -27.998c-28 59.333 -74.333 89 -139 89c-40 0 -75.833 -14 -107.5 -42s-50.834 -62 -57.501 -102c-2 -14.667 -1.16699 -28.5 2.5 -41.5s8.33398 -23.667 14.001 -32s14.667 -17 27 -26s22.5 -15.833 30.5 -20.5s19.333 -10.667 34 -18l6 -3l132 -75
c51.333 -36 72 -86 62 -150c-9.33301 -61.333 -41.166 -113.166 -95.499 -155.499s-112.833 -63.5 -175.5 -63.5c-51.333 0 -94.333 14.667 -129 44s-57 68.666 -67 117.999l45 19c10 -42 28.333 -75.167 55 -99.5s62 -36.5 106 -36.5c50 0 96.167 17.333 138.5 52
s67.5 76.667 75.5 126c2 15.333 1 29.666 -3 42.999s-9 24.5 -15 33.5s-15.667 18.5 -29 28.5s-24.166 17.333 -32.499 22s-20.5 11 -36.5 19c-5.33301 3.33301 -9.33301 5.66602 -12 6.99902l-125 72c-46.667 32 -65.334 77 -56.001 135
c8.66699 56 33.834 101.833 75.501 137.5s90.834 53.5 147.501 53.5c38 0 72.167 -9.5 102.5 -28.5s51.833 -44.833 64.5 -77.5z" />
    <glyph glyph-name="T" unicode="T" horiz-adv-x="450" 
d="M361 709l-112 -709h-48l112 709h-195l7 45h438l-7 -45h-195z" />
    <glyph glyph-name="U" unicode="U" horiz-adv-x="660" 
d="M585 298l72.001 456h48l-74 -470c-4 -25.333 -7.33301 -44.5 -10 -57.5s-7 -29.333 -13 -49s-14 -37.334 -24 -53.001s-22.333 -31.167 -37 -46.5c-29.333 -28.667 -63.333 -50.5 -102 -65.5s-77.5 -22.5 -116.5 -22.5s-75.5 7.5 -109.5 22.5s-61.333 36.833 -82 65.5
c-9.33301 15.333 -16.5 30.833 -21.5 46.5s-7.33301 33.334 -7 53.001s1.16602 36 2.49902 49s4 32.167 8 57.5l74 470h48l-72 -456c-4.66699 -30.667 -7.83398 -54.334 -9.50098 -71.001s-1.33398 -36.834 0.999023 -60.501s8.16602 -43.167 17.499 -58.5
c14 -22.667 36 -40.5 66 -53.5s60.5 -19.5 91.5 -19.5s63.5 6.5 97.5 19.5s61.667 30.833 83 53.5c14.667 15.333 26.834 34.833 36.501 58.5s16.334 43.834 20.001 60.501s7.83398 40.334 12.501 71.001z" />
    <glyph glyph-name="V" unicode="V" horiz-adv-x="555" 
d="M172 754l122 -644h2l325 644h48l-397 -779l-148 779h48z" />
    <glyph glyph-name="W" unicode="W" horiz-adv-x="1105" 
d="M179 754l110 -648l390 686l174 -686l311 648h48l-377 -779l-178 697l-397 -697l-129 779h48z" />
    <glyph glyph-name="X" unicode="X" horiz-adv-x="494" 
d="M279 385l-140 369h53l122 -324l224 324h53l-255 -369l146 -385h-52l-130 341l-236 -341h-52z" />
    <glyph glyph-name="Y" unicode="Y" horiz-adv-x="559" 
d="M306 322l-183 432h53l162 -382l282 382h53l-319 -432l-51 -322h-48z" />
    <glyph glyph-name="Z" unicode="Z" horiz-adv-x="568" 
d="M103 45h447l-7 -45h-531l572 709h-416l7 45h500z" />
    <glyph glyph-name="bracketleft" unicode="[" horiz-adv-x="300" 
d="M224 703l-135 -855h122l-8 -51h-170l151 957h170l-8 -51h-122z" />
    <glyph glyph-name="backslash" unicode="\" horiz-adv-x="640" 
d="M163 807l38 18l407 -806l-40 -19z" />
    <glyph glyph-name="bracketright" unicode="]" horiz-adv-x="300" 
d="M163 -152l135 855h-122l8 51h170l-151 -957h-170l8 51h122z" />
    <glyph glyph-name="asciicircum" unicode="^" 
d="M149 301h-47l301 453h52l159 -453h-46l-146 408z" />
    <glyph glyph-name="underscore" unicode="_" horiz-adv-x="500" 
d="M480 -125h-500l8 50h500z" />
    <glyph glyph-name="grave" unicode="`" horiz-adv-x="313" 
d="M185 695l64 19l78 -147l-41 -17z" />
    <glyph glyph-name="a" unicode="a" horiz-adv-x="560" 
d="M324 430c-51.333 0 -97.1689 -19.668 -137.502 -59.001s-64.5 -85 -72.5 -137c-8.66699 -55.333 0.666016 -102.833 27.999 -142.5s68 -59.5 122 -59.5c56.667 0 104.334 19.833 143.001 59.5s62.667 88.834 72 147.501c8.66699 54.667 -1.16602 100.167 -29.499 136.5
s-70.166 54.5 -125.499 54.5zM555.997 461.999l-73 -461.998h-45l13 83h-2c-20.667 -28.667 -48.834 -51.334 -84.501 -68.001s-71.167 -25 -106.5 -25c-68 0 -119.167 23.333 -153.5 70s-46.166 104.667 -35.499 174c10.667 68.667 40.167 125.5 88.5 170.5
s106.833 67.5 175.5 67.5c36 0 68.5 -7.83301 97.5 -23.5s51.167 -37.834 66.5 -66.501h2l12 80h45z" />
    <glyph glyph-name="b" unicode="b" horiz-adv-x="560" 
d="M306 32c54.667 0 101.832 19.833 141.499 59.5s63.834 87.167 72.501 142.5c8.66699 52.667 -1 98.5 -29 137.5s-68 58.5 -120 58.5c-56.667 0 -104.5 -18.667 -143.5 -56s-62.833 -84.333 -71.5 -141c-8.66699 -56 0.333008 -103.5 27 -142.5s67.667 -58.5 123 -58.5z
M76.998 0l131.001 824.998h45l-70 -443h2c23.333 28.667 52.166 50.834 86.499 66.501s69.5 23.5 105.5 23.5c68 0 119 -22.5 153 -67.5s45.667 -101.833 35 -170.5c-10.667 -69.333 -40.667 -127.333 -90 -174s-108.333 -70 -177 -70c-34.667 0 -67.167 8.33301 -97.5 25
s-51.5 39.334 -63.5 68.001h-2l-13 -83h-45z" />
    <glyph glyph-name="c" unicode="c" horiz-adv-x="477" 
d="M497 415l-10.002 -60c-38 50 -88.333 75 -151 75c-53.333 0 -101.666 -19.667 -144.999 -59s-69 -85.666 -77 -138.999c-8.66699 -53.333 2.16602 -100 32.499 -140s72.166 -60 125.499 -60c32.667 0 65 7.33301 97 22s60.667 35 86 61l-9 -61
c-56 -42.667 -115.667 -64 -179 -64c-68 0 -120.667 23.333 -158 70s-50.666 104 -39.999 172c10.667 67.333 42.334 124.166 95.001 170.499s113 69.5 181 69.5c62.667 0 113.334 -19 152.001 -57z" />
    <glyph glyph-name="d" unicode="d" horiz-adv-x="560" 
d="M264 32c56.667 0 104.331 19.832 142.998 59.499s62.667 88.834 72 147.501c8.66699 54.667 -1.16602 100.167 -29.499 136.5s-70.166 54.5 -125.499 54.5c-51.333 0 -97.166 -19.667 -137.499 -59s-64.5 -85 -72.5 -137
c-8.66699 -55.333 0.666016 -102.833 27.999 -142.5s68 -59.5 122 -59.5zM437.997 -0.000976562l13 83.002h-2c-20.667 -28.667 -48.834 -51.334 -84.501 -68.001s-71.167 -25 -106.5 -25c-68 0 -119.167 23.333 -153.5 70s-46.166 104.667 -35.499 174
c10.667 68.667 40.167 125.5 88.5 170.5s106.833 67.5 175.5 67.5c36 0 68.5 -7.83301 97.5 -23.5s51.167 -37.834 66.5 -66.501h2l70 443h45l-131 -825h-45z" />
    <glyph glyph-name="e" unicode="e" horiz-adv-x="510" 
d="M514 227l-401 -0.000976562c-10.667 -58 -1.16699 -105 28.5 -141s71.5 -54 125.5 -54c35.333 0 68.5 9.5 99.5 28.5s57.833 44.5 80.5 76.5l34 -22c-27.333 -40 -60.5 -70.833 -99.5 -92.5s-81.5 -32.5 -127.5 -32.5c-66.667 0 -116.834 23.5 -150.501 70.5
s-45.167 104.167 -34.5 171.5c10.667 66.667 40.5 123.334 89.5 170.001s106.5 70 172.5 70c68 0 118.333 -23.667 151 -71s43.334 -105.333 32.001 -174zM120 268.999h356.002c1.33301 44 -12 81.833 -40 113.5s-65 47.5 -111 47.5
c-46.667 0 -89.834 -15.833 -129.501 -47.5s-64.834 -69.5 -75.501 -113.5z" />
    <glyph glyph-name="f" unicode="f" horiz-adv-x="240" 
d="M189 420l-66.999 -420.002h-45l67 420h-51l6 42h51l33 207c8.66699 54 20.667 91.667 36 113c13.333 18 29.833 31.833 49.5 41.5s40.5 14.5 62.5 14.5c14.667 0 27.667 -2.33301 39 -7l-7 -41c-23.333 4 -35.333 6 -36 6c-14.667 0 -27.834 -3.16699 -39.501 -9.5
s-20.667 -13.333 -27 -21s-12 -18.667 -17 -33s-8.5 -26.166 -10.5 -35.499s-4 -21.666 -6 -36.999l-32 -198h116l-6 -42h-116z" />
    <glyph glyph-name="g" unicode="g" horiz-adv-x="567" 
d="M331 430c-51.333 0 -97.1689 -19.668 -137.502 -59.001s-64.5 -85 -72.5 -137c-8.66699 -55.333 0.666016 -102.833 27.999 -142.5s68 -59.5 122 -59.5c56.667 0 104.334 19.833 143.001 59.5s62.667 88.834 72 147.501c8.66699 54.667 -1.16602 100.167 -29.499 136.5
s-70.166 54.5 -125.499 54.5zM562.997 461.999l-70.0039 -439.999c-4 -29.333 -8.16699 -52.833 -12.5 -70.5s-11.833 -38.167 -22.5 -61.5s-24.667 -44.666 -42 -63.999c-25.333 -28.667 -55.333 -50.667 -90 -66s-70.667 -23 -108 -23c-62.667 0 -112.667 17.667 -150 53
s-52.666 83.666 -45.999 144.999h45c-5.33301 -46.667 7 -84.334 37 -113.001s69 -43 117 -43c66.667 0 119.667 23 159 69c20 24 35 50 45 78s18 60.333 24 97l9 57h-2c-25.333 -27.333 -55.333 -49.166 -90 -65.499s-69.667 -24.5 -105 -24.5
c-65.333 0 -115.166 23.667 -149.499 71s-46.166 104.333 -35.499 171c10.667 67.333 41.334 124.166 92.001 170.499s109.334 69.5 176.001 69.5c71.333 0 124.666 -30 159.999 -90h2l12 80h45z" />
    <glyph glyph-name="h" unicode="h" horiz-adv-x="490" 
d="M208 825l45.0029 0.00195312l-69 -435h2c17.333 26 39.166 46.167 65.499 60.5s54.5 21.5 84.5 21.5c56 0 92.667 -16.167 110 -48.5s21 -80.5 11 -144.5l-44 -279h-45l44 279c3.33301 18.667 5.33301 34.667 6 48s0 27 -2 41s-6.16699 25.167 -12.5 33.5
s-16 15.166 -29 20.499s-29.5 8 -49.5 8c-22 0 -42 -4.16699 -60 -12.5s-32.833 -18.833 -44.5 -31.5s-21.834 -28.334 -30.501 -47.001s-15.334 -36.667 -20.001 -54s-8.66699 -36.333 -12 -57l-36 -228h-45z" />
    <glyph glyph-name="i" unicode="i" horiz-adv-x="234" 
d="M212 462l-73 -462h-45l73 462h45zM221 657c11.333 0 20.333 -4 27 -12s9.33398 -17.667 8.00098 -29c-2 -11.333 -7.66699 -21 -17 -29s-19.666 -12 -30.999 -12s-20.333 4 -27 12s-9 17.667 -7 29c1.33301 11.333 6.66602 21 15.999 29s19.666 12 30.999 12z" />
    <glyph glyph-name="j" unicode="j" horiz-adv-x="234" 
d="M212 462l-116 -732h-45l116 732h45zM221 657c11.333 0 20.333 -4 27 -12s9.33398 -17.667 8.00098 -29c-2 -11.333 -7.66699 -21 -17 -29s-19.666 -12 -30.999 -12s-20.333 4 -27 12s-9 17.667 -7 29c1.33301 11.333 6.66602 21 15.999 29s19.666 12 30.999 12z" />
    <glyph glyph-name="k" unicode="k" horiz-adv-x="427" 
d="M253 825l-89 -559l221 196h58l-225 -200l217 -262h-59l-192 231l-30 -26l-32 -205h-45l131 825h45z" />
    <glyph glyph-name="l" unicode="l" horiz-adv-x="199" 
d="M253 825l-131 -825h-45l131 825h45z" />
    <glyph glyph-name="m" unicode="m" horiz-adv-x="725" 
d="M195 462l-9.00098 -58h2c14 21.333 32.333 38 55 50s46.667 18 72 18c29.333 0 54.166 -7.33301 74.499 -22s34.166 -35.334 41.499 -62.001c16.667 27.333 38.167 48.166 64.5 62.499s54.5 21.5 84.5 21.5c28.667 0 52 -4.66699 70 -14s30.5 -22.333 37.5 -39
s11 -36 12 -58s-0.833008 -45.667 -5.5 -71l-46 -290h-45l47 296c2.66699 24.667 4 46.834 4 66.501s-6.66699 35.834 -20 48.501s-34 19 -62 19c-79.333 0 -127.666 -54.667 -144.999 -164l-42 -266h-45l45 285c3.33301 20.667 5 38.667 5 54s-2.16699 30.333 -6.5 45
s-13.166 26 -26.499 34s-30.666 12 -51.999 12c-22.667 0 -43 -5.5 -61 -16.5s-32.333 -25.667 -43 -44s-19 -36.833 -25 -55.5s-10.667 -38.667 -14 -60l-40 -254h-45l73 462h45z" />
    <glyph glyph-name="n" unicode="n" horiz-adv-x="490" 
d="M195 462l-10.9971 -71.998h2c17.333 26 39.166 46.167 65.499 60.5s54.5 21.5 84.5 21.5c56 0 92.667 -16.167 110 -48.5s21 -80.5 11 -144.5l-44 -279h-45l44 279c3.33301 18.667 5.33301 34.667 6 48s0 27 -2 41s-6.16699 25.167 -12.5 33.5s-16 15.166 -29 20.499
s-29.5 8 -49.5 8c-22 0 -42 -4.16699 -60 -12.5s-32.833 -18.833 -44.5 -31.5s-21.834 -28.334 -30.501 -47.001s-15.334 -36.667 -20.001 -54s-8.66699 -36.333 -12 -57l-36 -228h-45l73 462h45z" />
    <glyph glyph-name="o" unicode="o" horiz-adv-x="547" 
d="M347 472c68 0 121.833 -23.167 161.5 -69.5s54 -103.5 43 -171.5s-43.5 -125.167 -97.5 -171.5s-115.333 -69.5 -184 -69.5c-66 0 -118.667 23.5 -158 70.5s-54 103.5 -44 169.5c10.667 66.667 43.167 123.667 97.5 171s114.833 71 181.5 71zM337 430
c-54 0 -102.67 -19.668 -146.003 -59.001s-69.333 -86.333 -78 -141c-8 -53.333 3.5 -99.666 34.5 -138.999s73.167 -59 126.5 -59c56.667 0 107.334 19 152.001 57s71.334 85 80.001 141c9.33301 56.667 -2.16699 104.167 -34.5 142.5s-77.166 57.5 -134.499 57.5z" />
    <glyph glyph-name="p" unicode="p" horiz-adv-x="560" 
d="M369 430c-56.667 0 -104.334 -20.165 -143.001 -60.498s-62.667 -89.833 -72 -148.5c-8.66699 -54.667 1.16602 -99.834 29.499 -135.501s69.833 -53.5 124.5 -53.5c52.667 0 98.834 19 138.501 57s63.834 83.667 72.501 137c8.66699 55.333 -0.5 103.166 -27.5 143.499
s-67.833 60.5 -122.5 60.5zM195 462.002l-12.998 -83.001h2c21.333 28.667 49.666 51.334 84.999 68.001s70.666 25 105.999 25c68.667 0 120 -23.5 154 -70.5s45.667 -105.167 35 -174.5c-10.667 -68.667 -40.167 -125.334 -88.5 -170.001s-106.833 -67 -175.5 -67
c-36 0 -68.667 7.83301 -98 23.5s-51 37.834 -65 66.501h-2l-56 -350h-45l116 732h45z" />
    <glyph glyph-name="q" unicode="q" horiz-adv-x="560" 
d="M327 430c-56.667 0 -104.334 -20.165 -143.001 -60.498s-62.667 -89.833 -72 -148.5c-8.66699 -54.667 1.16602 -99.834 29.499 -135.501s69.833 -53.5 124.5 -53.5c52.667 0 98.834 19 138.501 57s63.834 83.667 72.501 137c8.66699 55.333 -0.5 103.166 -27.5 143.499
s-67.833 60.5 -122.5 60.5zM556 462.002l-116.001 -731.998h-45l56 350h-2c-23.333 -28.667 -52.166 -50.834 -86.499 -66.501s-69.833 -23.5 -106.5 -23.5c-68 0 -119 22.167 -153 66.5s-45.667 100.833 -35 169.5c10.667 70 40.667 128.5 90 175.5s108.333 70.5 177 70.5
c35.333 0 68 -8.33301 98 -25s51 -39.334 63 -68.001h2l13 83h45z" />
    <glyph glyph-name="r" unicode="r" horiz-adv-x="278" 
d="M195 462l-9.00098 -60h2c27.333 46.667 64.333 70 111 70c16 0 31.667 -3.66699 47 -11l-30 -40c-10 6 -20.333 9 -31 9c-15.333 0 -29.166 -2.66699 -41.499 -8s-22.666 -13.5 -30.999 -24.5s-15.333 -21.667 -21 -32s-10.667 -24 -15 -41s-7.33301 -30.167 -9 -39.5
l-6.5 -38c-0.666992 -5.33301 -1.33398 -9 -2.00098 -11l-37 -236h-45l73 462h45z" />
    <glyph glyph-name="s" unicode="s" horiz-adv-x="375" 
d="M373 398l-41.9941 -19.998c-5.33301 16 -14.333 28.667 -27 38s-28 14 -46 14c-20 0 -39.333 -7.16699 -58 -21.5s-29.334 -31.166 -32.001 -50.499c-2.66699 -14.667 -0.666992 -27.334 6 -38.001s16.167 -19.334 28.5 -26.001s26 -12.667 41 -18s30 -11.5 45 -18.5
s28.333 -15.333 40 -25s20.334 -22.834 26.001 -39.501s6.5 -36.334 2.5 -59.001c-6.66699 -42 -26.334 -76.5 -59.001 -103.5s-70.334 -40.5 -113.001 -40.5c-38.667 0 -70.667 11 -96 33s-39.666 51.667 -42.999 89l46 14c4.66699 -29.333 15.167 -52.333 31.5 -69
s39.166 -25 68.499 -25s55.666 10.167 78.999 30.5s37.333 44.833 42 73.5c4 25.333 -0.666992 44.333 -14 57s-34 24 -62 34c-16 6 -28.333 11 -37 15s-19.334 9.83301 -32.001 17.5s-22.167 15.5 -28.5 23.5s-11.333 18.333 -15 31s-4.5 26.334 -2.5 41.001
c5.33301 34 22.166 62 50.499 84s59.833 33 94.5 33c23.333 0 45.166 -7 65.499 -21s33.833 -31.667 40.5 -53z" />
    <glyph glyph-name="t" unicode="t" horiz-adv-x="209" 
d="M194 420l-67 -420h-45l67 420h-51l6 42h51l26 165h45l-26 -165h81l-6 -42h-81z" />
    <glyph glyph-name="u" unicode="u" horiz-adv-x="472" 
d="M430 462h45.0049l-44 -277c-3.33301 -22 -6 -38.167 -8 -48.5s-6.5 -24 -13.5 -41s-16.167 -31.5 -27.5 -43.5c-18.667 -20 -41.167 -35.333 -67.5 -46s-53 -16 -80 -16s-52 5.33301 -75 16s-40.833 26 -53.5 46c-6.66699 12 -10.834 26.5 -12.501 43.5s-2 30.667 -1 41
s3.16699 26.5 6.5 48.5l44 277h45l-41 -261c-3.33301 -20.667 -5.5 -38.167 -6.5 -52.5s-0.5 -29.333 1.5 -45s6.5 -28.334 13.5 -38.001s17.667 -17.667 32 -24s32.166 -9.5 53.499 -9.5s40.166 3.16699 56.499 9.5s29.5 14.333 39.5 24s18.667 22.334 26 38.001
s12.666 30.667 15.999 45s6.66602 31.833 9.99902 52.5z" />
    <glyph glyph-name="v" unicode="v" horiz-adv-x="433" 
d="M124 462l107 -381l224 381h46l-288 -487l-135 487h46z" />
    <glyph glyph-name="w" unicode="w" horiz-adv-x="752" 
d="M124 462l103 -379l227 404l100 -404l220 379h46l-286 -487l-100 399l-225 -399l-131 487h46z" />
    <glyph glyph-name="x" unicode="x" horiz-adv-x="443" 
d="M231 244l-138 218h54l118 -187l177 187h54l-206 -218l149 -244h-53l-131 212l-198 -212h-53z" />
    <glyph glyph-name="y" unicode="y" horiz-adv-x="460" 
d="M214 -8l-148 470h47l131 -418l243 418h46l-426 -732h-46z" />
    <glyph glyph-name="z" unicode="z" horiz-adv-x="480" 
d="M105 42h375l-7 -42h-470l445 420h-317l6 42h411z" />
    <glyph glyph-name="braceleft" unicode="{" horiz-adv-x="300" 
d="M81 255l7.00195 43.999c29.333 18 50.833 35 64.5 51s22.834 37.333 27.501 64l27 176c9.33301 59.333 26.333 101.166 51 125.499s64.667 37.166 120 38.499l-7 -46c-12.667 0 -24.167 -0.833008 -34.5 -2.5s-21 -5.16699 -32 -10.5s-20.333 -13.666 -28 -24.999
s-12.834 -25.333 -15.501 -42l-29 -186c-7.33301 -47.333 -18.333 -82 -33 -104s-36.667 -41.667 -66 -59l-1 -5c24 -16.667 39.667 -36.667 47 -60s7.33301 -59.333 0 -108l-30 -185c-2.66699 -16.667 -2 -30.667 2 -42s10.833 -19.666 20.5 -24.999
s19.167 -8.83301 28.5 -10.5s20.666 -2.5 33.999 -2.5l-7 -44c-55.333 2 -91.333 15 -108 39s-20.334 65.333 -11.001 124l28 176c4 27.333 1.5 49.333 -7.5 66s-24.833 34.334 -47.5 53.001z" />
    <glyph glyph-name="bar" unicode="|" horiz-adv-x="320" 
d="M102 -214l159 1000h48l-159 -1000h-48z" />
    <glyph glyph-name="braceright" unicode="}" horiz-adv-x="300" 
d="M306 299l-6.99707 -43.999c-28 -18.667 -49.167 -36.334 -63.5 -53.001s-23.5 -38.667 -27.5 -66l-28 -176c-9.33301 -58.667 -26.166 -100 -50.499 -124s-64.5 -37 -120.5 -39l7 44c12.667 0 24.167 0.833008 34.5 2.5s21 5.16699 32 10.5s20.167 13.666 27.5 24.999
s12.333 25.333 15 42l30 185c7.33301 48.667 18.5 84.667 33.5 108s36.833 43.333 65.5 60l1 5c-23.333 17.333 -38.833 37 -46.5 59s-7.83398 56.667 -0.500977 104l29 186c2.66699 16.667 2.16699 30.667 -1.5 42s-10.334 19.666 -20.001 24.999
s-19.334 8.83301 -29.001 10.5s-20.834 2.5 -33.501 2.5l7 46c56 -1.33301 92.167 -14.166 108.5 -38.499s19.833 -66.166 10.5 -125.499l-27 -176c-4.66699 -26.667 -2.5 -48 6.5 -64s24.833 -33 47.5 -51z" />
    <glyph glyph-name="asciitilde" unicode="~" 
d="M251 314c26 0 63.001 -12 111.001 -36c6 -2.66699 14.833 -7 26.5 -13l27 -14c6.33301 -3.33301 13.666 -6.33301 21.999 -9s15.5 -4 21.5 -4c20.667 0 39.667 7 57 21s34.666 33.667 51.999 59l45 -23c-26 -32.667 -52.167 -59 -78.5 -79s-54.833 -30 -85.5 -30
c-24.667 0 -59 12.667 -103 38c-14.667 8.66699 -26.167 15 -34.5 19s-19.166 8.16699 -32.499 12.5s-25.333 6.5 -36 6.5c-20.667 0 -39.5 -6.33301 -56.5 -19s-35.5 -31 -55.5 -55l-44 23l16 16.5c9.33301 9.66699 15.333 15.667 18 18s8.5 7.83301 17.5 16.5
s15.667 14.5 20 17.5s11 7.33301 20 13s16.667 9.66699 23 12s14 4.5 23 6.5s17.833 3 26.5 3z" />
    <glyph glyph-name="nbspace" unicode="&#xa0;" horiz-adv-x="310" 
 />
    <glyph glyph-name="exclamdown" unicode="&#xa1;" horiz-adv-x="320" 
d="M235 472c11.333 0 20.333 -4 27 -12s9.16699 -17.667 7.5 -29s-7.16699 -21 -16.5 -29s-19.666 -12 -30.999 -12s-20.333 4 -27 12s-9.16699 17.667 -7.5 29s7.16699 21 16.5 29s19.666 12 30.999 12zM235 321l-97 -611h-48l97 611h48z" />
    <glyph glyph-name="cent" unicode="&#xa2;" 
d="M596 568l-9.99609 -60.002c-34.667 46.667 -78.667 72 -132 76l-64 -399c29.333 2.66699 58.333 11.334 87 26.001s53.667 33.667 75 57h2l-9 -61c-52.667 -40 -106.334 -61.333 -161.001 -64l-21 -128h-45l21 129c-58.667 6 -104.334 31.667 -137.001 77
s-44.334 98 -35.001 158c10 64 38 119.333 84 166s100.667 73.334 164 80.001l19 117h45l-19 -116c53.333 -2 98.666 -21.333 135.999 -58zM345.004 185.998l62.999 396c-48 -6.66699 -90.667 -29.167 -128 -67.5s-59.666 -81.833 -66.999 -130.5
c-8 -48.667 0.5 -92.167 25.5 -130.5s60.5 -60.833 106.5 -67.5z" />
    <glyph glyph-name="sterling" unicode="&#xa3;" 
d="M89 -10l-20.001 39c19.333 19.333 42.166 35.166 68.499 47.499s51.5 18.166 75.5 17.499c48.667 36.667 76.334 76.334 83.001 119.001l1 29h-124l7 45h112l-59 138c-14 29.333 -23.5 54.833 -28.5 76.5s-5.5 46.167 -1.5 73.5c8.66699 54 35.834 99 81.501 135
s95.5 54 149.5 54c55.333 0 98.5 -19.5 129.5 -58.5s41.167 -85.833 30.5 -140.5h-48c8 44.667 0.333008 81.5 -23 110.5s-57.333 43.5 -102 43.5c-40 0 -76.833 -14.833 -110.5 -44.5s-53.834 -64.5 -60.501 -104.5c-2 -13.333 -1.66699 -27.333 1 -42s6 -27 10 -37
s9.66699 -22.667 17 -38c2 -4.66699 7.83301 -17.5 17.5 -38.5s16.334 -35.833 20.001 -44.5s8.5 -21.167 14.5 -37.5s10.667 -31.5 14 -45.5h136l-7 -45h-127l-3 -33c-3.33301 -22 -12 -44.167 -26 -66.5s-31 -42.166 -51 -59.499l10 -3c4.66699 -1.33301 18 -6.5 40 -15.5
s41.333 -16.167 58 -21.5s30.334 -8 41.001 -8c22 0 43.333 7.83301 64 23.5s39 35.167 55 58.5l37 -24c-20.667 -28.667 -44.834 -53 -72.501 -73s-56.167 -30 -85.5 -30c-24.667 0 -60.667 10 -108 30c-46 19.333 -78.333 29 -97 29c-33.333 0 -73 -19.667 -119 -59z" />
    <glyph glyph-name="currency" unicode="&#xa4;" 
d="M720 685c-46.667 52.667 -111.666 79.001 -194.999 79.001c-87.333 0 -164.666 -31.667 -231.999 -95c-61.333 -58.667 -105 -134.334 -131 -227.001h-70l-21 -45h80l-3 -21c-2 -12 -4.33301 -30 -7 -54h-68l-21 -45h88c1.33301 -84.667 23.666 -153 66.999 -205
c46 -54.667 111.667 -82 197 -82c45.333 0 81.666 3.66699 108.999 11c28 8.66699 58 24 90 46l10 58c-31.333 -25.333 -58.333 -42.333 -81 -51c-31.333 -12.667 -72 -19 -122 -19c-70 0 -124.667 23.333 -164 70c-35.333 43.333 -54.333 100.666 -57 171.999h343l21 45
h-364c2 22.667 4 39.334 6 50.001l4 25h389l21 45h-399c24 89.333 64 158.333 120 207c52.667 46.667 113.667 70 183 70c45.333 0 81.5 -6.5 108.5 -19.5s51.833 -35.167 74.5 -66.5z" />
    <glyph glyph-name="yen" unicode="&#xa5;" 
d="M337 322l-31 75h-161l7 45h134l-132 312h58l158 -377l276 377h58l-230 -312h134l-7 -45h-160l-56 -75h204l-7 -45h-204l-44 -277h-48l44 277h-204l7 45h204z" />
    <glyph glyph-name="brokenbar" unicode="&#xa6;" horiz-adv-x="320" 
d="M122 -89l40 250h48l-40 -250h-48zM201 411l40 250h48l-40 -250h-48z" />
    <glyph glyph-name="section" unicode="&#xa7;" 
d="M335 155c36 0 69.3311 13 99.998 39s48.667 57 54 93c6 36 -2.16699 67.333 -24.5 94s-51.5 40 -87.5 40c-36.667 0 -70.5 -13.333 -101.5 -40s-49.5 -58 -55.5 -94c-5.33301 -36 3.33398 -67 26.001 -93s52.334 -39 89.001 -39zM141.998 -11l47.999 -0.0078125l-2 -13
c-6 -42 -1.5 -73.167 13.5 -93.5s43.167 -30.5 84.5 -30.5c38 0 70.5 10.333 97.5 31s43.5 49.334 49.5 86.001c2.66699 16 2 30.667 -2 44s-9.16699 24 -15.5 32s-16.333 15.833 -30 23.5s-24.834 13.334 -33.501 17.001s-21.667 8.5 -39 14.5
c-2 0.666992 -3.66699 1.33398 -5 2.00098c-24.667 8.66699 -45 17.334 -61 26.001s-31.167 20 -45.5 34s-23.833 31.167 -28.5 51.5s-5 43.833 -1 70.5c6 39.333 21.333 74.166 46 104.499s56 52.833 94 67.5c-30.667 16 -51.834 35.833 -63.501 59.5
s-14.5 53.834 -8.5 90.501c8 50 30.667 88.833 68 116.5s81.333 41.5 132 41.5c59.333 0 98.5 -14.667 117.5 -44s25.833 -75 20.5 -137h-48c6.66699 44 2.16699 77.667 -13.5 101s-45.167 35 -88.5 35c-36 0 -67 -10.833 -93 -32.5s-42 -50.5 -48 -86.5
c-2.66699 -16.667 -2.33398 -31.334 0.999023 -44.001s7.83301 -23 13.5 -31s14.834 -15.667 27.501 -23s23.334 -12.666 32.001 -15.999s21.667 -8 39 -14c7.33301 -2.66699 13 -4.66699 17 -6l23 -9c6.66699 -2.66699 14.167 -6 22.5 -10s15.333 -8 21 -12
s11.834 -8.83301 18.501 -14.5s12 -11.667 16 -18s8 -13.666 12 -21.999s6.66699 -17.166 8 -26.499s2 -20 2 -32s-1 -24.667 -3 -38c-6 -37.333 -21.333 -70.166 -46 -98.499s-55.667 -51.166 -93 -68.499c66.667 -27.333 94 -79 82 -155
c-8 -50.667 -30.833 -89.167 -68.5 -115.5s-82.5 -39.5 -134.5 -39.5c-58.667 0 -98.667 14.333 -120 43s-26.666 71.667 -15.999 129z" />
    <glyph glyph-name="dieresis" unicode="&#xa8;" horiz-adv-x="421" 
d="M223.5 674c11 0 19.833 -3.83301 26.5 -11.5s9.16699 -17.167 7.5 -28.5s-7 -20.833 -16 -28.5s-19 -11.5 -30 -11.5s-19.833 4 -26.5 12s-9.16699 17.333 -7.5 28s7 20 16 28s19 12 30 12zM410.5 674c11 0 19.833 -3.83301 26.5 -11.5s9.16699 -17.167 7.5 -28.5
s-7 -20.833 -16 -28.5s-19 -11.5 -30 -11.5s-19.833 4 -26.5 12s-9.16699 17.333 -7.5 28s7 20 16 28s19 12 30 12z" />
    <glyph glyph-name="copyright" unicode="&#xa9;" horiz-adv-x="800" 
d="M399 -10c-70 0 -132 17.333 -186 52s-93.667 81.834 -119 141.501s-32.333 124.5 -21 194.5c10.667 70 38.167 134.667 82.5 194s99 106.166 164 140.499s132.5 51.5 202.5 51.5s131.833 -17.167 185.5 -51.5s93 -81.166 118 -140.499s32.167 -124 21.5 -194
c-11.333 -70 -38.833 -134.833 -82.5 -194.5s-98 -106.834 -163 -141.501s-132.5 -52 -202.5 -52zM407 38c62 0 121.168 15 177.501 45s103.666 71.167 141.999 123.5s62.5 109.5 72.5 171.5s4 118.833 -18 170.5s-56.5 92.5 -103.5 122.5s-101.5 45 -163.5 45
s-121.333 -15 -178 -45s-104.167 -70.833 -142.5 -122.5s-62.5 -108.5 -72.5 -170.5s-4 -119.167 18 -171.5s56.667 -93.5 104 -123.5s102 -45 164 -45zM598.001 308l47.999 0.000976562c-11.333 -45.333 -36.5 -81.666 -75.5 -108.999s-81.5 -41 -127.5 -41
c-63.333 0 -111.5 21.167 -144.5 63.5s-44.5 95.5 -34.5 159.5c10.667 65.333 38.334 118.666 83.001 159.999s99.334 62 164.001 62c47.333 0 85.666 -13 114.999 -39s43.666 -61.667 42.999 -107h-48c-0.666992 29.333 -12.334 53 -35.001 71s-50 27 -82 27
c-50 0 -92.5 -16.5 -127.5 -49.5s-56.167 -74.167 -63.5 -123.5c-8 -48 0.833008 -89.333 26.5 -124s62.834 -52 111.501 -52c32 0 62.333 9.16699 91 27.5s47.334 43.166 56.001 74.499z" />
    <glyph glyph-name="ordfeminine" unicode="&#xaa;" horiz-adv-x="336" 
d="M279 730c-30.667 0 -57.999 -11 -81.999 -33s-38.333 -47.667 -43 -77c-4.66699 -30 1.33301 -56 18 -78s41.334 -33 74.001 -33c35.333 0 65.166 11 89.499 33s39.166 49 44.499 81c4.66699 30 -2.5 55.333 -21.5 76s-45.5 31 -79.5 31zM435.001 758l-44 -277.001h-29
l8 50h-2c-13.333 -17.333 -31.333 -31 -54 -41s-45.667 -15 -69 -15c-44 0 -77.5 14 -100.5 42s-31.167 62.667 -24.5 104s25.5 75.5 56.5 102.5s68.833 40.5 113.5 40.5c23.333 0 44.5 -4.66699 63.5 -14s33.167 -22.666 42.5 -39.999h2l8 48h29z" />
    <glyph glyph-name="guillemotleft" unicode="&#xab;" horiz-adv-x="397" 
d="M260 320l98 -142l-33 -27l-119 169l172 169l25 -27zM140 320l98 -142l-33 -27l-119 169l172 169l25 -27z" />
    <glyph glyph-name="logicalnot" unicode="&#xac;" 
d="M534 99l34 218h-464l8 48h512l-42 -266h-48z" />
    <glyph glyph-name="registered" unicode="&#xae;" horiz-adv-x="800" 
d="M399 -10c-70 0 -132 17.333 -186 52s-93.667 81.834 -119 141.501s-32.333 124.5 -21 194.5c10.667 70 38.167 134.667 82.5 194s99 106.166 164 140.499s132.5 51.5 202.5 51.5s131.833 -17.167 185.5 -51.5s93 -81.166 118 -140.499s32.167 -124 21.5 -194
c-11.333 -70 -38.833 -134.833 -82.5 -194.5s-98 -106.834 -163 -141.501s-132.5 -52 -202.5 -52zM407 38c62 0 121.168 15 177.501 45s103.666 71.167 141.999 123.5s62.5 109.5 72.5 171.5s4 118.833 -18 170.5s-56.5 92.5 -103.5 122.5s-101.5 45 -163.5 45
s-121.333 -15 -178 -45s-104.167 -70.833 -142.5 -122.5s-62.5 -108.5 -72.5 -170.5s-4 -119.167 18 -171.5s56.667 -93.5 104 -123.5s102 -45 164 -45zM518.001 353l97 -194.999h-62l-90 195h-99l-31 -195h-48l67 423h185c54 0 91 -9.5 111 -28.5s27 -46.833 21 -83.5
c-12 -74.667 -62.333 -113.334 -151 -116.001zM372.001 401.001l82.999 -0.00390625h23h26.5c5 0 13.333 0.333008 25 1s20.5 1.83398 26.5 3.50098s13.5 4.33398 22.5 8.00098s15.833 7.83398 20.5 12.501s9.16699 10.834 13.5 18.501s7.16602 16.167 8.49902 25.5
c2.66699 13.333 1.33398 24.333 -3.99902 33s-13.666 15 -24.999 19s-22.833 6.83301 -34.5 8.5s-25.167 2.5 -40.5 2.5h-125z" />
    <glyph glyph-name="macron" unicode="&#xaf;" horiz-adv-x="456" 
d="M182 674h305l-7 -45h-305z" />
    <glyph glyph-name="degree" unicode="&#xb0;" horiz-adv-x="400" 
d="M447 614c-6.66699 -41.333 -26.999 -76.668 -60.999 -106.001s-71.667 -44 -113 -44s-74.333 14.667 -99 44s-33.667 64.666 -27 105.999c6 40.667 26.167 75.834 60.5 105.501s72.166 44.5 113.499 44.5s74.333 -14.667 99 -44s33.667 -64.666 27 -105.999z
M313.001 721.998c-30 0 -56.998 -10.5 -80.998 -31.5s-38.333 -46.5 -43 -76.5c-4.66699 -30.667 1.66602 -56.334 18.999 -77.001s41.333 -31 72 -31c30 0 57.167 10.333 81.5 31s38.833 46.334 43.5 77.001c4.66699 30 -1.83301 55.5 -19.5 76.5
s-41.834 31.5 -72.501 31.5z" />
    <glyph glyph-name="plusminus" unicode="&#xb1;" 
d="M337 320l30 192h48l-30 -192h232l-8 -48h-232l-30 -192h-48l30 192h-232l8 48h232zM54 0l8 48h512l-8 -48h-512z" />
    <glyph glyph-name="twosuperior" unicode="&#xb2;" horiz-adv-x="372" 
d="M168 340l222 -0.00390625l-6 -34h-302l212 185c20.667 18 36.667 32.5 48 43.5s24 26.333 38 46s22 37.5 24 53.5c4.66699 28.667 -2.33301 51.834 -21 69.501s-44 26.5 -76 26.5c-34 0 -62.833 -9 -86.5 -27s-37.834 -42 -42.501 -72h-34
c6.66699 36 21.334 64.333 44.001 85c16.667 14.667 36.167 26.334 58.5 35.001s44.166 13 65.499 13c40.667 0 73.334 -12.667 98.001 -38s34 -56.666 28 -93.999c-4 -27.333 -16 -53.166 -36 -77.499s-45.333 -49.833 -76 -76.5z" />
    <glyph glyph-name="threesuperior" unicode="&#xb3;" horiz-adv-x="372" 
d="M266 525l6.00391 34c29.333 0 54.833 8.16699 76.5 24.5s34.834 38.166 39.501 65.499c4 24 -2 43.5 -18 58.5s-37.333 22.5 -64 22.5c-28.667 0 -51.834 -6.66699 -69.501 -20s-29.5 -32.666 -35.5 -57.999h-34c8.66699 34.667 25.667 62 51 82s56.666 30 93.999 30
c35.333 0 63.666 -11.333 84.999 -34s29.666 -50 24.999 -82c-4 -23.333 -14 -44.333 -30 -63s-36.333 -32.667 -61 -42c22.667 -8.66699 39.834 -23.167 51.501 -43.5s15.834 -42.5 12.501 -66.5c-6 -37.333 -24.833 -68.833 -56.5 -94.5s-67.834 -38.5 -108.501 -38.5
c-38 0 -68.5 11 -91.5 33s-31.833 50 -26.5 84h34c-1.33301 -26 5.66699 -46.333 21 -61s37.666 -22 66.999 -22c31.333 0 59.166 9.16699 83.499 27.5s38.5 41.5 42.5 69.5c4.66699 28.667 -2 51.5 -20 68.5s-42.667 25.5 -74 25.5z" />
    <glyph glyph-name="acute" unicode="&#xb4;" horiz-adv-x="313" 
d="M289 714l58 -19l-147 -145l-35 17z" />
    <glyph glyph-name="paragraph" unicode="&#xb6;" 
d="M254 -178l87 548.001c-50 -0.666992 -88.333 17.666 -115 54.999s-35.667 82.333 -27 135c20 129.333 97.667 194 233 194h197l-7 -45h-40l-140 -887h-48l140 887h-92l-140 -887h-48z" />
    <glyph glyph-name="periodcentered" unicode="&#xb7;" horiz-adv-x="310" 
d="M202 297c11.333 0 20.333 -4 27 -12s9.16699 -17.667 7.5 -29s-7.16699 -21 -16.5 -29s-19.666 -12 -30.999 -12s-20.333 4 -27 12s-9.16699 17.667 -7.5 29s7.16699 21 16.5 29s19.666 12 30.999 12z" />
    <glyph glyph-name="cedilla" unicode="&#xb8;" horiz-adv-x="299" 
d="M217 -42l-133 -141l-35 19l116 144z" />
    <glyph glyph-name="onesuperior" unicode="&#xb9;" horiz-adv-x="372" 
d="M324 720h-76l20 34h95l-71 -448h-34z" />
    <glyph glyph-name="ordmasculine" unicode="&#xba;" horiz-adv-x="328" 
d="M284 764c44 0 79.1689 -13.8311 105.502 -41.498s36.166 -61.834 29.499 -102.501c-6.66699 -41.333 -27.334 -75.833 -62.001 -103.5s-74.334 -41.5 -119.001 -41.5c-42.667 0 -77 14.167 -103 42.5s-36 62.166 -30 101.499c6.66699 40 27.334 74.167 62.001 102.5
s73.667 42.5 117 42.5zM277.002 730.002c-32 0 -61 -11.167 -87 -33.5s-41.333 -48.5 -46 -78.5c-4.66699 -29.333 2.5 -54.833 21.5 -76.5s44.5 -32.5 76.5 -32.5c33.333 0 63.5 10.5 90.5 31.5s42.833 46.833 47.5 77.5c4.66699 31.333 -2.83301 57.833 -22.5 79.5
s-46.5 32.5 -80.5 32.5z" />
    <glyph glyph-name="guillemotright" unicode="&#xbb;" horiz-adv-x="397" 
d="M95 178l144 142l-99 142l33 27l120 -169l-173 -169zM215 178l144 142l-99 142l33 27l120 -169l-173 -169z" />
    <glyph glyph-name="onequarter" unicode="&#xbc;" horiz-adv-x="930" 
d="M290 720h-76l20 34h95l-71 -448h-34zM782 116h66l-5 -34h-66l-13 -82h-34l13 82h-259l1 4l347 382h6zM748 116l40 251h-5l-225 -247l-1 -4h191zM771 772l29 -18l-569 -771l-29 18z" />
    <glyph glyph-name="onehalf" unicode="&#xbd;" horiz-adv-x="930" 
d="M290 720h-76l20 34h95l-71 -448h-34zM611 34l221.999 -0.00390625l-5 -34h-302l211 185c20.667 18 36.667 32.5 48 43.5s24 26.333 38 46s22.333 37.5 25 53.5c4.66699 28.667 -2.5 51.834 -21.5 69.501s-44.5 26.5 -76.5 26.5c-34 0 -62.667 -9 -86 -27
s-37.666 -42 -42.999 -72h-34c7.33301 36 22.333 64.333 45 85c16 14.667 35.333 26.334 58 35.001s44.667 13 66 13c40.667 0 73.167 -12.667 97.5 -38s33.833 -56.666 28.5 -93.999c-4.66699 -27.333 -17 -53.166 -37 -77.499s-45.333 -49.833 -76 -76.5zM726.999 771.996
l29 -18l-569 -771l-29 18z" />
    <glyph glyph-name="threequarters" unicode="&#xbe;" horiz-adv-x="930" 
d="M822 116h66l-5 -34h-66l-13 -82h-34l13 82h-259l1 4l347 382h6zM788 116l40 251h-5l-225 -247l-1 -4h191zM280 525l6.00391 34c29.333 0 54.833 8.16699 76.5 24.5s34.834 38.166 39.501 65.499c4 24 -2 43.5 -18 58.5s-37.333 22.5 -64 22.5
c-28.667 0 -51.834 -6.66699 -69.501 -20s-29.5 -32.666 -35.5 -57.999h-34c8.66699 34.667 25.667 62 51 82s56.666 30 93.999 30c35.333 0 63.666 -11.333 84.999 -34s29.666 -50 24.999 -82c-4 -23.333 -14 -44.333 -30 -63s-36.333 -32.667 -61 -42
c22.667 -8.66699 39.834 -23.167 51.501 -43.5s15.834 -42.5 12.501 -66.5c-6 -37.333 -24.833 -68.833 -56.5 -94.5s-67.834 -38.5 -108.501 -38.5c-38 0 -68.5 11 -91.5 33s-31.833 50 -26.5 84h34c-1.33301 -26 5.66699 -46.333 21 -61s37.666 -22 66.999 -22
c31.333 0 59.166 9.16699 83.499 27.5s38.5 41.5 42.5 69.5c4.66699 28.667 -2 51.5 -20 68.5s-42.667 25.5 -74 25.5zM824.004 772l29 -18l-569 -771l-29 18z" />
    <glyph glyph-name="questiondown" unicode="&#xbf;" horiz-adv-x="491" 
d="M162 159l-48.0029 -0.00195312c5.33301 46 25 84.333 59 115s75 46 123 46c44 0 79 -14.167 105 -42.5s35.667 -63.833 29 -106.5c-6.66699 -43.333 -24.334 -76.833 -53.001 -100.5s-66.667 -41.167 -114 -52.5l-50.5 -13.5c-11 -3 -24.667 -8.16699 -41 -15.5
s-28.5 -15.333 -36.5 -24s-15.833 -20.167 -23.5 -34.5s-13.167 -31.166 -16.5 -50.499c-6 -38 1.33301 -70.333 22 -97s50.334 -40 89.001 -40c37.333 0 70.5 12.167 99.5 36.5s45.833 54.5 50.5 90.5c3.33301 21.333 4.66602 39 3.99902 53h46
c0.666992 -24.667 -0.333008 -46 -3 -64c-7.33301 -46.667 -31.166 -85.167 -71.499 -115.5s-84.833 -45.5 -133.5 -45.5c-53.333 0 -94 16.833 -122 50.5s-37.833 76.834 -29.5 129.501s28.5 92.167 60.5 118.5s76.667 46.5 134 60.5c17.333 4 30.5 7.33301 39.5 10
s20.333 7 34 13s24.334 12.5 32.001 19.5s14.834 16.333 21.501 28s11.334 25.167 14.001 40.5c4.66699 31.333 -2 57 -20 77s-43 30 -75 30c-32.667 0 -60.5 -11.5 -83.5 -34.5s-36.833 -50.167 -41.5 -81.5zM322.997 471.998c11.333 0 20.333 -4 27 -12
s9.16699 -17.667 7.5 -29s-7.16699 -21 -16.5 -29s-19.666 -12 -30.999 -12s-20.333 4 -27 12s-9.16699 17.667 -7.5 29s7.16699 21 16.5 29s19.666 12 30.999 12z" />
    <glyph glyph-name="Agrave" unicode="&#xc0;" horiz-adv-x="641" 
d="M525 248h-331l-140 -248h-49l439 779l192 -779h-49zM514 293l-89 364l-206 -364h295zM390 952l64 19l78 -147l-41 -17z" />
    <glyph glyph-name="Aacute" unicode="&#xc1;" horiz-adv-x="641" 
d="M525 248h-331l-140 -248h-49l439 779l192 -779h-49zM514 293l-89 364l-206 -364h295zM494 971l58 -19l-147 -145l-35 17z" />
    <glyph glyph-name="Acircumflex" unicode="&#xc2;" horiz-adv-x="641" 
d="M525 248h-331l-140 -248h-49l439 779l192 -779h-49zM514 293l-89 364l-206 -364h295zM317 845l155 106l121 -106l-43 -29l-88 77l-114 -77z" />
    <glyph glyph-name="Atilde" unicode="&#xc3;" horiz-adv-x="641" 
d="M525 248h-331l-140 -248h-49l439 779l192 -779h-49zM514 293l-89 364l-206 -364h295zM340 843l-26.999 22c10 18 22.833 33.167 38.5 45.5s32.167 18.5 49.5 18.5c16 0 38.333 -6.33301 67 -19l15.5 -6.5l16 -7c3.66699 -1.66699 8.16699 -3.16699 13.5 -4.5
s10.333 -2 15 -2c11.333 0 21.833 4 31.5 12s17.167 17.667 22.5 29l26 -22c-7.33301 -18 -19.833 -33.333 -37.5 -46s-35.5 -19 -53.5 -19c-11.333 0 -32 6.66699 -62 20c-28.667 13.333 -50.334 20 -65.001 20c-20 0 -36.667 -13.667 -50 -41z" />
    <glyph glyph-name="Adieresis" unicode="&#xc4;" horiz-adv-x="641" 
d="M525 248h-331l-140 -248h-49l439 779l192 -779h-49zM514 293l-89 364l-206 -364h295zM374.5 931c11 0 19.832 -3.83301 26.499 -11.5s9.16699 -17.167 7.5 -28.5s-7.16699 -20.833 -16.5 -28.5s-19.5 -11.5 -30.5 -11.5s-19.667 4 -26 12s-8.66602 17.333 -6.99902 28
s7 20 16 28s19 12 30 12zM561.499 931c11 0 19.832 -3.83301 26.499 -11.5s9.16699 -17.167 7.5 -28.5s-7.16699 -20.833 -16.5 -28.5s-19.5 -11.5 -30.5 -11.5s-19.667 4 -26 12s-8.66602 17.333 -6.99902 28s7 20 16 28s19 12 30 12z" />
    <glyph glyph-name="Aring" unicode="&#xc5;" horiz-adv-x="641" 
d="M525 248h-331l-140 -248h-49l439 779l192 -779h-49zM514 293l-89 364l-206 -364h295zM475 971c24 0 43.167 -8.5 57.5 -25.5s19.5 -37.5 15.5 -61.5s-15.833 -44.5 -35.5 -61.5s-41.5 -25.5 -65.5 -25.5s-43.167 8.5 -57.5 25.5s-19.5 37.5 -15.5 61.5
s15.833 44.5 35.5 61.5s41.5 25.5 65.5 25.5zM468.5 931c-13 0 -24.833 -4.66699 -35.5 -14s-17 -20.333 -19 -33s0.833008 -23.667 8.5 -33s18 -14 31 -14s24.833 4.5 35.5 13.5s17 20.167 19 33.5s-0.833008 24.5 -8.5 33.5s-18 13.5 -31 13.5z" />
    <glyph glyph-name="AE" unicode="&#xc6;" horiz-adv-x="942" 
d="M519 248h-323l-137 -248h-54l423 754h329l10 -45h-311l69 -274h303l12 -45h-303l85 -345h312l11 -45h-365zM507 293l-87 355l-198 -355h285z" />
    <glyph glyph-name="Ccedilla" unicode="&#xc7;" horiz-adv-x="739" 
d="M785 666l-9.99902 -66.0029c-23.333 35.333 -56.5 64 -99.5 86s-87.833 33 -134.5 33c-61.333 0 -121 -16 -179 -48s-106.667 -74.667 -146 -128s-63.666 -110.333 -72.999 -171c-6.66699 -43.333 -4.33398 -85.166 6.99902 -125.499s30.333 -76.166 57 -107.499
c28 -31.333 61.833 -56.5 101.5 -75.5s81.167 -28.5 124.5 -28.5c44 0 91.833 10.833 143.5 32.5s94.167 49.167 127.5 82.5l-11 -66c-85.333 -62.667 -174 -94 -266 -94c-51.333 0 -99.5 10.333 -144.5 31s-82.5 48.167 -112.5 82.5s-52 75.5 -66 123.5
s-16.667 97.667 -8 149c10.667 70 38.667 134.833 84 194.5s101 106.834 167 141.501s134 52 204 52c45.333 0 88.666 -8.66699 129.999 -26s76 -41.333 104 -72zM437.001 -42.0029l-133 -141l-35 19l116 144z" />
    <glyph glyph-name="Egrave" unicode="&#xc8;" horiz-adv-x="507" 
d="M553 709h-312l-43 -274h304l-7 -45h-304l-55 -345h312l-7 -45h-360l119 754h360zM323 952l64 19l78 -147l-41 -17z" />
    <glyph glyph-name="Eacute" unicode="&#xc9;" horiz-adv-x="507" 
d="M553 709h-312l-43 -274h304l-7 -45h-304l-55 -345h312l-7 -45h-360l119 754h360zM447 971l58 -19l-147 -145l-35 17z" />
    <glyph glyph-name="Ecircumflex" unicode="&#xca;" horiz-adv-x="507" 
d="M553 709h-312l-43 -274h304l-7 -45h-304l-55 -345h312l-7 -45h-360l119 754h360zM250 845l155 106l121 -106l-43 -29l-88 77l-114 -77z" />
    <glyph glyph-name="Edieresis" unicode="&#xcb;" horiz-adv-x="507" 
d="M553 709h-312l-43 -274h304l-7 -45h-304l-55 -345h312l-7 -45h-360l119 754h360zM307.5 931c11 0 19.832 -3.83301 26.499 -11.5s9.16699 -17.167 7.5 -28.5s-7.16699 -20.833 -16.5 -28.5s-19.5 -11.5 -30.5 -11.5s-19.667 4 -26 12s-8.66602 17.333 -6.99902 28
s7 20 16 28s19 12 30 12zM494.499 931c11 0 19.832 -3.83301 26.499 -11.5s9.16699 -17.167 7.5 -28.5s-7.16699 -20.833 -16.5 -28.5s-19.5 -11.5 -30.5 -11.5s-19.667 4 -26 12s-8.66602 17.333 -6.99902 28s7 20 16 28s19 12 30 12z" />
    <glyph glyph-name="Igrave" unicode="&#xcc;" horiz-adv-x="210" 
d="M248 754l-119 -754h-48l119 754h48zM175 952l64 19l78 -147l-41 -17z" />
    <glyph glyph-name="Iacute" unicode="&#xcd;" horiz-adv-x="210" 
d="M248 754l-119 -754h-48l119 754h48zM279 971l58 -19l-147 -145l-35 17z" />
    <glyph glyph-name="Icircumflex" unicode="&#xce;" horiz-adv-x="210" 
d="M248 754l-119 -754h-48l119 754h48zM101 845l155 106l121 -106l-43 -29l-88 77l-114 -77z" />
    <glyph glyph-name="Idieresis" unicode="&#xcf;" horiz-adv-x="210" 
d="M248 754l-119 -754h-48l119 754h48zM159.5 931c11 0 19.832 -3.83301 26.499 -11.5s9.16699 -17.167 7.5 -28.5s-7.16699 -20.833 -16.5 -28.5s-19.5 -11.5 -30.5 -11.5s-19.667 4 -26 12s-8.66602 17.333 -6.99902 28s7 20 16 28s19 12 30 12zM346.499 931
c11 0 19.832 -3.83301 26.499 -11.5s9.16699 -17.167 7.5 -28.5s-7.16699 -20.833 -16.5 -28.5s-19.5 -11.5 -30.5 -11.5s-19.667 4 -26 12s-8.66602 17.333 -6.99902 28s7 20 16 28s19 12 30 12z" />
    <glyph glyph-name="Eth" unicode="&#xd0;" horiz-adv-x="652" 
d="M241 709l-42.998 -275.001h173l-7 -45h-173l-55 -344h87c53.333 0 101.333 6.66699 144 20s84 37 124 71c36.667 32 67 68.833 91 110.5s39.667 84.834 47 129.501c7.33301 48 5.16602 93.833 -6.50098 137.5s-32.834 81.5 -63.501 113.5
c-28.667 30.667 -61.667 52 -99 64s-81.333 18 -132 18h-87zM81.002 -0.000976562l61.999 389.003h-81l7 45h81l50 320h136c60 0 110.833 -6.83301 152.5 -20.5s79.167 -38.5 112.5 -74.5c33.333 -36.667 56.5 -79.334 69.5 -128.001s15.167 -100.334 6.5 -155.001
c-8.66699 -52.667 -26.667 -102.834 -54 -150.501s-62.666 -89.5 -105.999 -125.5c-45.333 -38 -91.5 -64.167 -138.5 -78.5s-100.833 -21.5 -161.5 -21.5h-136z" />
    <glyph glyph-name="Ntilde" unicode="&#xd1;" horiz-adv-x="843" 
d="M881 754l-123 -779l-526 673l-103 -648h-48l121 764l527 -668l104 658h48zM441 843l-26.999 22c10 18 22.833 33.167 38.5 45.5s32.167 18.5 49.5 18.5c16 0 38.333 -6.33301 67 -19l15.5 -6.5l16 -7c3.66699 -1.66699 8.16699 -3.16699 13.5 -4.5s10.333 -2 15 -2
c11.333 0 21.833 4 31.5 12s17.167 17.667 22.5 29l26 -22c-7.33301 -18 -19.833 -33.333 -37.5 -46s-35.5 -19 -53.5 -19c-11.333 0 -32 6.66699 -62 20c-28.667 13.333 -50.334 20 -65.001 20c-20 0 -36.667 -13.667 -50 -41z" />
    <glyph glyph-name="Ograve" unicode="&#xd2;" horiz-adv-x="854" 
d="M548 764c69.333 0 131.335 -17.333 186.002 -52s95 -81.834 121 -141.501s33.5 -124.167 22.5 -193.5s-38.833 -133.833 -83.5 -193.5s-99.834 -106.834 -165.501 -141.501s-133.334 -52 -203.001 -52s-131.834 17.333 -186.501 52s-95 81.834 -121 141.501
s-33.5 124.167 -22.5 193.5s38.833 133.833 83.5 193.5s99.834 106.834 165.501 141.501s133.5 52 203.5 52zM541.002 719c-61.333 0 -120.832 -15.5039 -178.499 -46.5039s-106.167 -72.667 -145.5 -125s-63.833 -109.166 -73.5 -170.499s-3.16699 -118.166 19.5 -170.499
s57.834 -94 105.501 -125s102.5 -46.5 164.5 -46.5c60.667 0 120 15.5 178 46.5s106.5 72.833 145.5 125.5s63.5 109.334 73.5 170.001c9.33301 60.667 2.66602 117.334 -20.001 170.001s-57.834 94.5 -105.501 125.5s-102.167 46.5 -163.5 46.5zM497.003 951.996l64 19
l78 -147l-41 -17z" />
    <glyph glyph-name="Oacute" unicode="&#xd3;" horiz-adv-x="854" 
d="M548 764c69.333 0 131.335 -17.333 186.002 -52s95 -81.834 121 -141.501s33.5 -124.167 22.5 -193.5s-38.833 -133.833 -83.5 -193.5s-99.834 -106.834 -165.501 -141.501s-133.334 -52 -203.001 -52s-131.834 17.333 -186.501 52s-95 81.834 -121 141.501
s-33.5 124.167 -22.5 193.5s38.833 133.833 83.5 193.5s99.834 106.834 165.501 141.501s133.5 52 203.5 52zM541.002 719c-61.333 0 -120.832 -15.5039 -178.499 -46.5039s-106.167 -72.667 -145.5 -125s-63.833 -109.166 -73.5 -170.499s-3.16699 -118.166 19.5 -170.499
s57.834 -94 105.501 -125s102.5 -46.5 164.5 -46.5c60.667 0 120 15.5 178 46.5s106.5 72.833 145.5 125.5s63.5 109.334 73.5 170.001c9.33301 60.667 2.66602 117.334 -20.001 170.001s-57.834 94.5 -105.501 125.5s-102.167 46.5 -163.5 46.5zM601.003 970.996l58 -19
l-147 -145l-35 17z" />
    <glyph glyph-name="Ocircumflex" unicode="&#xd4;" horiz-adv-x="854" 
d="M548 764c69.333 0 131.335 -17.333 186.002 -52s95 -81.834 121 -141.501s33.5 -124.167 22.5 -193.5s-38.833 -133.833 -83.5 -193.5s-99.834 -106.834 -165.501 -141.501s-133.334 -52 -203.001 -52s-131.834 17.333 -186.501 52s-95 81.834 -121 141.501
s-33.5 124.167 -22.5 193.5s38.833 133.833 83.5 193.5s99.834 106.834 165.501 141.501s133.5 52 203.5 52zM541.002 719c-61.333 0 -120.832 -15.5039 -178.499 -46.5039s-106.167 -72.667 -145.5 -125s-63.833 -109.166 -73.5 -170.499s-3.16699 -118.166 19.5 -170.499
s57.834 -94 105.501 -125s102.5 -46.5 164.5 -46.5c60.667 0 120 15.5 178 46.5s106.5 72.833 145.5 125.5s63.5 109.334 73.5 170.001c9.33301 60.667 2.66602 117.334 -20.001 170.001s-57.834 94.5 -105.501 125.5s-102.167 46.5 -163.5 46.5zM423.003 844.996l155 106
l121 -106l-43 -29l-88 77l-114 -77z" />
    <glyph glyph-name="Otilde" unicode="&#xd5;" horiz-adv-x="854" 
d="M548 764c69.333 0 131.335 -17.333 186.002 -52s95 -81.834 121 -141.501s33.5 -124.167 22.5 -193.5s-38.833 -133.833 -83.5 -193.5s-99.834 -106.834 -165.501 -141.501s-133.334 -52 -203.001 -52s-131.834 17.333 -186.501 52s-95 81.834 -121 141.501
s-33.5 124.167 -22.5 193.5s38.833 133.833 83.5 193.5s99.834 106.834 165.501 141.501s133.5 52 203.5 52zM541.002 719c-61.333 0 -120.832 -15.5039 -178.499 -46.5039s-106.167 -72.667 -145.5 -125s-63.833 -109.166 -73.5 -170.499s-3.16699 -118.166 19.5 -170.499
s57.834 -94 105.501 -125s102.5 -46.5 164.5 -46.5c60.667 0 120 15.5 178 46.5s106.5 72.833 145.5 125.5s63.5 109.334 73.5 170.001c9.33301 60.667 2.66602 117.334 -20.001 170.001s-57.834 94.5 -105.501 125.5s-102.167 46.5 -163.5 46.5zM447.003 842.996
l-26.999 22c10 18 22.833 33.167 38.5 45.5s32.167 18.5 49.5 18.5c16 0 38.333 -6.33301 67 -19l15.5 -6.5l16 -7c3.66699 -1.66699 8.16699 -3.16699 13.5 -4.5s10.333 -2 15 -2c11.333 0 21.833 4 31.5 12s17.167 17.667 22.5 29l26 -22
c-7.33301 -18 -19.833 -33.333 -37.5 -46s-35.5 -19 -53.5 -19c-11.333 0 -32 6.66699 -62 20c-28.667 13.333 -50.334 20 -65.001 20c-20 0 -36.667 -13.667 -50 -41z" />
    <glyph glyph-name="Odieresis" unicode="&#xd6;" horiz-adv-x="854" 
d="M548 764c69.333 0 131.335 -17.333 186.002 -52s95 -81.834 121 -141.501s33.5 -124.167 22.5 -193.5s-38.833 -133.833 -83.5 -193.5s-99.834 -106.834 -165.501 -141.501s-133.334 -52 -203.001 -52s-131.834 17.333 -186.501 52s-95 81.834 -121 141.501
s-33.5 124.167 -22.5 193.5s38.833 133.833 83.5 193.5s99.834 106.834 165.501 141.501s133.5 52 203.5 52zM541.002 719c-61.333 0 -120.832 -15.5039 -178.499 -46.5039s-106.167 -72.667 -145.5 -125s-63.833 -109.166 -73.5 -170.499s-3.16699 -118.166 19.5 -170.499
s57.834 -94 105.501 -125s102.5 -46.5 164.5 -46.5c60.667 0 120 15.5 178 46.5s106.5 72.833 145.5 125.5s63.5 109.334 73.5 170.001c9.33301 60.667 2.66602 117.334 -20.001 170.001s-57.834 94.5 -105.501 125.5s-102.167 46.5 -163.5 46.5zM481.503 930.996
c11 0 19.832 -3.83301 26.499 -11.5s9.16699 -17.167 7.5 -28.5s-7.16699 -20.833 -16.5 -28.5s-19.5 -11.5 -30.5 -11.5s-19.667 4 -26 12s-8.66602 17.333 -6.99902 28s7 20 16 28s19 12 30 12zM668.502 930.996c11 0 19.832 -3.83301 26.499 -11.5
s9.16699 -17.167 7.5 -28.5s-7.16699 -20.833 -16.5 -28.5s-19.5 -11.5 -30.5 -11.5s-19.667 4 -26 12s-8.66602 17.333 -6.99902 28s7 20 16 28s19 12 30 12z" />
    <glyph glyph-name="multiply" unicode="&#xd7;" 
d="M320 256l-190 222l35 34l190 -226l262 226l25 -34l-259 -222l188 -224l-35 -32l-190 225l-261 -225l-26 32z" />
    <glyph glyph-name="Oslash" unicode="&#xd8;" horiz-adv-x="854" 
d="M195 151l556.998 480.999c-55.333 58 -125.666 87 -210.999 87c-61.333 0 -120.833 -15.5 -178.5 -46.5s-106.167 -72.667 -145.5 -125s-63.666 -109.166 -72.999 -170.499c-14 -86 3 -161.333 51 -226zM775.998 604.999l-558 -482.001c57.333 -58.667 129 -88 215 -88
c60.667 0 120 15.5 178 46.5s106.5 72.833 145.5 125.5s63.5 109.334 73.5 170.001c14 88 -4 164 -54 228zM53.998 28.998l104 89.999c-57.333 74 -78 160 -62 258c10.667 69.333 38.334 133.833 83.001 193.5s99.834 106.834 165.501 141.501s133.5 52 203.5 52
c48 0 92.833 -8.66699 134.5 -26s77.5 -41.666 107.5 -72.999l106 91l25 -26l-107 -92c27.333 -35.333 46.666 -75.333 57.999 -120s13.333 -91.667 6 -141c-11.333 -69.333 -39.333 -133.833 -84 -193.5s-99.834 -106.834 -165.501 -141.501s-133.5 -52 -203.5 -52
c-49.333 0 -94.833 8.83301 -136.5 26.5s-77.5 42.5 -107.5 74.5l-105 -91z" />
    <glyph glyph-name="Ugrave" unicode="&#xd9;" horiz-adv-x="660" 
d="M585 298l72.001 456h48l-74 -470c-4 -25.333 -7.33301 -44.5 -10 -57.5s-7 -29.333 -13 -49s-14 -37.334 -24 -53.001s-22.333 -31.167 -37 -46.5c-29.333 -28.667 -63.333 -50.5 -102 -65.5s-77.5 -22.5 -116.5 -22.5s-75.5 7.5 -109.5 22.5s-61.333 36.833 -82 65.5
c-9.33301 15.333 -16.5 30.833 -21.5 46.5s-7.33301 33.334 -7 53.001s1.16602 36 2.49902 49s4 32.167 8 57.5l74 470h48l-72 -456c-4.66699 -30.667 -7.83398 -54.334 -9.50098 -71.001s-1.33398 -36.834 0.999023 -60.501s8.16602 -43.167 17.499 -58.5
c14 -22.667 36 -40.5 66 -53.5s60.5 -19.5 91.5 -19.5s63.5 6.5 97.5 19.5s61.667 30.833 83 53.5c14.667 15.333 26.834 34.833 36.501 58.5s16.334 43.834 20.001 60.501s7.83398 40.334 12.501 71.001zM385.001 952l64 19l78 -147l-41 -17z" />
    <glyph glyph-name="Uacute" unicode="&#xda;" horiz-adv-x="660" 
d="M585 298l72.001 456h48l-74 -470c-4 -25.333 -7.33301 -44.5 -10 -57.5s-7 -29.333 -13 -49s-14 -37.334 -24 -53.001s-22.333 -31.167 -37 -46.5c-29.333 -28.667 -63.333 -50.5 -102 -65.5s-77.5 -22.5 -116.5 -22.5s-75.5 7.5 -109.5 22.5s-61.333 36.833 -82 65.5
c-9.33301 15.333 -16.5 30.833 -21.5 46.5s-7.33301 33.334 -7 53.001s1.16602 36 2.49902 49s4 32.167 8 57.5l74 470h48l-72 -456c-4.66699 -30.667 -7.83398 -54.334 -9.50098 -71.001s-1.33398 -36.834 0.999023 -60.501s8.16602 -43.167 17.499 -58.5
c14 -22.667 36 -40.5 66 -53.5s60.5 -19.5 91.5 -19.5s63.5 6.5 97.5 19.5s61.667 30.833 83 53.5c14.667 15.333 26.834 34.833 36.501 58.5s16.334 43.834 20.001 60.501s7.83398 40.334 12.501 71.001zM519.001 971l58 -19l-147 -145l-35 17z" />
    <glyph glyph-name="Ucircumflex" unicode="&#xdb;" horiz-adv-x="660" 
d="M585 298l72.001 456h48l-74 -470c-4 -25.333 -7.33301 -44.5 -10 -57.5s-7 -29.333 -13 -49s-14 -37.334 -24 -53.001s-22.333 -31.167 -37 -46.5c-29.333 -28.667 -63.333 -50.5 -102 -65.5s-77.5 -22.5 -116.5 -22.5s-75.5 7.5 -109.5 22.5s-61.333 36.833 -82 65.5
c-9.33301 15.333 -16.5 30.833 -21.5 46.5s-7.33301 33.334 -7 53.001s1.16602 36 2.49902 49s4 32.167 8 57.5l74 470h48l-72 -456c-4.66699 -30.667 -7.83398 -54.334 -9.50098 -71.001s-1.33398 -36.834 0.999023 -60.501s8.16602 -43.167 17.499 -58.5
c14 -22.667 36 -40.5 66 -53.5s60.5 -19.5 91.5 -19.5s63.5 6.5 97.5 19.5s61.667 30.833 83 53.5c14.667 15.333 26.834 34.833 36.501 58.5s16.334 43.834 20.001 60.501s7.83398 40.334 12.501 71.001zM326.001 845l155 106l121 -106l-43 -29l-88 77l-114 -77z" />
    <glyph glyph-name="Udieresis" unicode="&#xdc;" horiz-adv-x="660" 
d="M585 298l72.001 456h48l-74 -470c-4 -25.333 -7.33301 -44.5 -10 -57.5s-7 -29.333 -13 -49s-14 -37.334 -24 -53.001s-22.333 -31.167 -37 -46.5c-29.333 -28.667 -63.333 -50.5 -102 -65.5s-77.5 -22.5 -116.5 -22.5s-75.5 7.5 -109.5 22.5s-61.333 36.833 -82 65.5
c-9.33301 15.333 -16.5 30.833 -21.5 46.5s-7.33301 33.334 -7 53.001s1.16602 36 2.49902 49s4 32.167 8 57.5l74 470h48l-72 -456c-4.66699 -30.667 -7.83398 -54.334 -9.50098 -71.001s-1.33398 -36.834 0.999023 -60.501s8.16602 -43.167 17.499 -58.5
c14 -22.667 36 -40.5 66 -53.5s60.5 -19.5 91.5 -19.5s63.5 6.5 97.5 19.5s61.667 30.833 83 53.5c14.667 15.333 26.834 34.833 36.501 58.5s16.334 43.834 20.001 60.501s7.83398 40.334 12.501 71.001zM384.501 931c11 0 19.832 -3.83301 26.499 -11.5
s9.16699 -17.167 7.5 -28.5s-7.16699 -20.833 -16.5 -28.5s-19.5 -11.5 -30.5 -11.5s-19.667 4 -26 12s-8.66602 17.333 -6.99902 28s7 20 16 28s19 12 30 12zM571.5 931c11 0 19.832 -3.83301 26.499 -11.5s9.16699 -17.167 7.5 -28.5s-7.16699 -20.833 -16.5 -28.5
s-19.5 -11.5 -30.5 -11.5s-19.667 4 -26 12s-8.66602 17.333 -6.99902 28s7 20 16 28s19 12 30 12z" />
    <glyph glyph-name="Yacute" unicode="&#xdd;" horiz-adv-x="559" 
d="M306 322l-183 432h53l162 -382l282 382h53l-319 -432l-51 -322h-48zM483 971l58 -19l-147 -145l-35 17z" />
    <glyph glyph-name="Thorn" unicode="&#xde;" horiz-adv-x="472" 
d="M81 0l119 754.001h48l-25 -160h85c36 0 66.5 -2.83301 91.5 -8.5s46.5 -17.5 64.5 -35.5c39.333 -38.667 54 -90.334 44 -155.001c-4.66699 -28 -14.667 -55.667 -30 -83s-34.333 -49.333 -57 -66c-42 -32 -100.667 -48 -176 -48h-85l-31 -198h-48zM167 243.001
l87.001 -0.000976562c58 0 104.333 13.667 139 41c37.333 30 59.666 67.667 66.999 113c4 24 2.83301 47 -3.5 69s-17.833 39.667 -34.5 53c-14.667 12.667 -32 20.834 -52 24.501s-45 5.5 -75 5.5h-79z" />
    <glyph glyph-name="germandbls" unicode="&#xdf;" horiz-adv-x="534" 
d="M77 0l67.0029 419.997h-49l6 42h49l30 188c9.33301 60 27.666 103.667 54.999 131c17.333 18.667 38.833 32.834 64.5 42.501s51.5 14.5 77.5 14.5c46 0 81.5 -15.5 106.5 -46.5s33.833 -69.5 26.5 -115.5c-4.66699 -30.667 -16.834 -58.5 -36.501 -83.5
s-43.834 -42.5 -72.501 -52.5l-1 -2c53.333 -15.333 93.333 -47.833 120 -97.5s35.334 -103.834 26.001 -162.501c-12 -74.667 -48.667 -138.834 -110 -192.501s-130 -84.167 -206 -91.5l7 42c64.667 9.33301 122.334 36.333 173.001 81s81 98.334 91 161.001
c10.667 65.333 -1.83301 119.333 -37.5 162s-86.167 67.334 -151.5 74.001l7 42c38 0.666992 70.5 12.334 97.5 35.001s43.5 52.667 49.5 90c5.33301 34 -1.83398 61.667 -21.501 83s-46.834 32 -81.501 32c-19.333 0 -38.5 -4.16699 -57.5 -12.5
s-34.5 -20.166 -46.5 -35.499c-16 -22 -28.333 -60 -37 -114l-100 -634h-45z" />
    <glyph glyph-name="agrave" unicode="&#xe0;" horiz-adv-x="560" 
d="M324 430c-51.333 0 -97.1689 -19.668 -137.502 -59.001s-64.5 -85 -72.5 -137c-8.66699 -55.333 0.666016 -102.833 27.999 -142.5s68 -59.5 122 -59.5c56.667 0 104.334 19.833 143.001 59.5s62.667 88.834 72 147.501c8.66699 54.667 -1.16602 100.167 -29.499 136.5
s-70.166 54.5 -125.499 54.5zM555.997 461.999l-73 -461.998h-45l13 83h-2c-20.667 -28.667 -48.834 -51.334 -84.501 -68.001s-71.167 -25 -106.5 -25c-68 0 -119.167 23.333 -153.5 70s-46.166 104.667 -35.499 174c10.667 68.667 40.167 125.5 88.5 170.5
s106.833 67.5 175.5 67.5c36 0 68.5 -7.83301 97.5 -23.5s51.167 -37.834 66.5 -66.501h2l12 80h45zM293.997 695.001l64 19l78 -147l-41 -17z" />
    <glyph glyph-name="aacute" unicode="&#xe1;" horiz-adv-x="560" 
d="M324 430c-51.333 0 -97.1689 -19.668 -137.502 -59.001s-64.5 -85 -72.5 -137c-8.66699 -55.333 0.666016 -102.833 27.999 -142.5s68 -59.5 122 -59.5c56.667 0 104.334 19.833 143.001 59.5s62.667 88.834 72 147.501c8.66699 54.667 -1.16602 100.167 -29.499 136.5
s-70.166 54.5 -125.499 54.5zM555.997 461.999l-73 -461.998h-45l13 83h-2c-20.667 -28.667 -48.834 -51.334 -84.501 -68.001s-71.167 -25 -106.5 -25c-68 0 -119.167 23.333 -153.5 70s-46.166 104.667 -35.499 174c10.667 68.667 40.167 125.5 88.5 170.5
s106.833 67.5 175.5 67.5c36 0 68.5 -7.83301 97.5 -23.5s51.167 -37.834 66.5 -66.501h2l12 80h45zM427.997 714.001l58 -19l-147 -145l-35 17z" />
    <glyph glyph-name="acircumflex" unicode="&#xe2;" horiz-adv-x="560" 
d="M324 430c-51.333 0 -97.1689 -19.668 -137.502 -59.001s-64.5 -85 -72.5 -137c-8.66699 -55.333 0.666016 -102.833 27.999 -142.5s68 -59.5 122 -59.5c56.667 0 104.334 19.833 143.001 59.5s62.667 88.834 72 147.501c8.66699 54.667 -1.16602 100.167 -29.499 136.5
s-70.166 54.5 -125.499 54.5zM555.997 461.999l-73 -461.998h-45l13 83h-2c-20.667 -28.667 -48.834 -51.334 -84.501 -68.001s-71.167 -25 -106.5 -25c-68 0 -119.167 23.333 -153.5 70s-46.166 104.667 -35.499 174c10.667 68.667 40.167 125.5 88.5 170.5
s106.833 67.5 175.5 67.5c36 0 68.5 -7.83301 97.5 -23.5s51.167 -37.834 66.5 -66.501h2l12 80h45zM234.997 588.001l155 106l121 -106l-42 -29l-88 77l-114 -77z" />
    <glyph glyph-name="atilde" unicode="&#xe3;" horiz-adv-x="560" 
d="M324 430c-51.333 0 -97.1689 -19.668 -137.502 -59.001s-64.5 -85 -72.5 -137c-8.66699 -55.333 0.666016 -102.833 27.999 -142.5s68 -59.5 122 -59.5c56.667 0 104.334 19.833 143.001 59.5s62.667 88.834 72 147.501c8.66699 54.667 -1.16602 100.167 -29.499 136.5
s-70.166 54.5 -125.499 54.5zM555.997 461.999l-73 -461.998h-45l13 83h-2c-20.667 -28.667 -48.834 -51.334 -84.501 -68.001s-71.167 -25 -106.5 -25c-68 0 -119.167 23.333 -153.5 70s-46.166 104.667 -35.499 174c10.667 68.667 40.167 125.5 88.5 170.5
s106.833 67.5 175.5 67.5c36 0 68.5 -7.83301 97.5 -23.5s51.167 -37.834 66.5 -66.501h2l12 80h45zM258.997 586.001l-27.001 22c10 18 23 33.167 39 45.5s32.333 18.5 49 18.5c16 0 38.333 -6.33301 67 -19l15.5 -6.5l16 -7
c3.66699 -1.66699 8.33398 -3.16699 14.001 -4.5s10.5 -2 14.5 -2c11.333 0 21.833 4 31.5 12s17.5 17.667 23.5 29l25 -22c-7.33301 -18 -19.666 -33.333 -36.999 -46s-35.333 -19 -54 -19c-11.333 0 -32 6.66699 -62 20c-28.667 13.333 -50.334 20 -65.001 20
c-20 0 -36.667 -13.667 -50 -41z" />
    <glyph glyph-name="adieresis" unicode="&#xe4;" horiz-adv-x="560" 
d="M324 430c-51.333 0 -97.1689 -19.668 -137.502 -59.001s-64.5 -85 -72.5 -137c-8.66699 -55.333 0.666016 -102.833 27.999 -142.5s68 -59.5 122 -59.5c56.667 0 104.334 19.833 143.001 59.5s62.667 88.834 72 147.501c8.66699 54.667 -1.16602 100.167 -29.499 136.5
s-70.166 54.5 -125.499 54.5zM555.997 461.999l-73 -461.998h-45l13 83h-2c-20.667 -28.667 -48.834 -51.334 -84.501 -68.001s-71.167 -25 -106.5 -25c-68 0 -119.167 23.333 -153.5 70s-46.166 104.667 -35.499 174c10.667 68.667 40.167 125.5 88.5 170.5
s106.833 67.5 175.5 67.5c36 0 68.5 -7.83301 97.5 -23.5s51.167 -37.834 66.5 -66.501h2l12 80h45zM293.497 674.001c11 0 19.833 -3.83301 26.5 -11.5s9.16699 -17.167 7.5 -28.5s-7 -20.833 -16 -28.5s-19 -11.5 -30 -11.5s-19.833 4 -26.5 12s-9.16699 17.333 -7.5 28
s7 20 16 28s19 12 30 12zM480.497 674.001c11 0 19.833 -3.83301 26.5 -11.5s9.16699 -17.167 7.5 -28.5s-7 -20.833 -16 -28.5s-19 -11.5 -30 -11.5s-19.833 4 -26.5 12s-9.16699 17.333 -7.5 28s7 20 16 28s19 12 30 12z" />
    <glyph glyph-name="aring" unicode="&#xe5;" horiz-adv-x="560" 
d="M324 430c-51.333 0 -97.1689 -19.668 -137.502 -59.001s-64.5 -85 -72.5 -137c-8.66699 -55.333 0.666016 -102.833 27.999 -142.5s68 -59.5 122 -59.5c56.667 0 104.334 19.833 143.001 59.5s62.667 88.834 72 147.501c8.66699 54.667 -1.16602 100.167 -29.499 136.5
s-70.166 54.5 -125.499 54.5zM555.997 461.999l-73 -461.998h-45l13 83h-2c-20.667 -28.667 -48.834 -51.334 -84.501 -68.001s-71.167 -25 -106.5 -25c-68 0 -119.167 23.333 -153.5 70s-46.166 104.667 -35.499 174c10.667 68.667 40.167 125.5 88.5 170.5
s106.833 67.5 175.5 67.5c36 0 68.5 -7.83301 97.5 -23.5s51.167 -37.834 66.5 -66.501h2l12 80h45zM392.997 714.001c24 0 43.167 -8.5 57.5 -25.5s19.666 -37.5 15.999 -61.5s-15.334 -44.5 -35.001 -61.5s-41.5 -25.5 -65.5 -25.5s-43.167 8.5 -57.5 25.5
s-19.666 37.5 -15.999 61.5s15.334 44.5 35.001 61.5s41.5 25.5 65.5 25.5zM386.497 674.001c-13 0 -24.833 -4.5 -35.5 -13.5s-17 -20 -19 -33s0.833008 -24.167 8.5 -33.5s18 -14 31 -14s24.833 4.66699 35.5 14s17 20.333 19 33s-0.833008 23.667 -8.5 33s-18 14 -31 14z
" />
    <glyph glyph-name="ae" unicode="&#xe6;" horiz-adv-x="849" 
d="M458 268l356.001 0.000976562c1.33301 43.333 -12.334 81.166 -41.001 113.499s-65 48.5 -109 48.5c-46 0 -89 -16 -129 -48s-65.667 -70 -77 -114zM260.001 237.001c-18 0 -35.832 -1.66895 -53.499 -5.00195s-35.167 -8.66602 -52.5 -15.999s-32 -18 -44 -32
s-19.667 -30.333 -23 -49c-2.66699 -19.333 -0.5 -36.166 6.5 -50.499s17.667 -25 32 -32s29.333 -12.167 45 -15.5s32.834 -5 51.501 -5c22.667 0 45.667 3.16699 69 9.5s45.166 17.666 65.499 33.999s32.166 36.166 35.499 59.499c3.33301 18.667 1.5 34.834 -5.5 48.501
s-17.5 24.334 -31.5 32.001s-29 13.167 -45 16.5s-32.667 5 -50 5zM785.002 135.999l33.999 -25.998c-29.333 -37.333 -63.5 -66.666 -102.5 -87.999s-79.833 -32 -122.5 -32c-40 0 -75.833 10.167 -107.5 30.5s-52.834 48.166 -63.501 83.499h-2
c-15.333 -38 -43 -66.5 -83 -85.5s-82.333 -28.5 -127 -28.5c-22 0 -43.5 2.83301 -64.5 8.5s-40.167 14.167 -57.5 25.5s-30.5 26.5 -39.5 45.5s-11.5 40.5 -7.5 64.5c4 25.333 13.833 47.666 29.5 66.999s34.5 34.5 56.5 45.5s44.667 19.167 68 24.5s46.666 8 69.999 8
c61.333 0 108.333 -16.333 141 -49c6 26.667 7.5 52.167 4.5 76.5s-9 45.666 -18 63.999s-23.667 32.833 -44 43.5s-45.166 16 -74.499 16c-43.333 0 -97.333 -14 -162 -42l8 46c53.333 25.333 110 38 170 38c42.667 0 78 -11.167 106 -33.5s46 -53.833 54 -94.5
c22.667 38 54 68.833 94 92.5s81 35.5 123 35.5c44.667 0 82.5 -11.5 113.5 -34.5s52.333 -53 64 -90s14.167 -77.5 7.5 -121.5h-401c-7.33301 -54 2.83398 -99.833 30.501 -137.5s67.834 -56.5 120.501 -56.5c34.667 0 68 9.5 100 28.5s59.333 44.167 82 75.5z" />
    <glyph glyph-name="ccedilla" unicode="&#xe7;" horiz-adv-x="477" 
d="M497 415l-10.002 -60c-38 50 -88.333 75 -151 75c-53.333 0 -101.666 -19.667 -144.999 -59s-69 -85.666 -77 -138.999c-8.66699 -53.333 2.16602 -100 32.499 -140s72.166 -60 125.499 -60c32.667 0 65 7.33301 97 22s60.667 35 86 61l-9 -61
c-56 -42.667 -115.667 -64 -179 -64c-68 0 -120.667 23.333 -158 70s-50.666 104 -39.999 172c10.667 67.333 42.334 124.166 95.001 170.499s113 69.5 181 69.5c62.667 0 113.334 -19 152.001 -57zM305.998 -42l-133 -141l-35 19l116 144z" />
    <glyph glyph-name="egrave" unicode="&#xe8;" horiz-adv-x="510" 
d="M514 227l-401 -0.000976562c-10.667 -58 -1.16699 -105 28.5 -141s71.5 -54 125.5 -54c35.333 0 68.5 9.5 99.5 28.5s57.833 44.5 80.5 76.5l34 -22c-27.333 -40 -60.5 -70.833 -99.5 -92.5s-81.5 -32.5 -127.5 -32.5c-66.667 0 -116.834 23.5 -150.501 70.5
s-45.167 104.167 -34.5 171.5c10.667 66.667 40.5 123.334 89.5 170.001s106.5 70 172.5 70c68 0 118.333 -23.667 151 -71s43.334 -105.333 32.001 -174zM120 268.999h356.002c1.33301 44 -12 81.833 -40 113.5s-65 47.5 -111 47.5
c-46.667 0 -89.834 -15.833 -129.501 -47.5s-64.834 -69.5 -75.501 -113.5zM269.002 694.999l64 19l78 -147l-41 -17z" />
    <glyph glyph-name="eacute" unicode="&#xe9;" horiz-adv-x="510" 
d="M514 227l-401 -0.000976562c-10.667 -58 -1.16699 -105 28.5 -141s71.5 -54 125.5 -54c35.333 0 68.5 9.5 99.5 28.5s57.833 44.5 80.5 76.5l34 -22c-27.333 -40 -60.5 -70.833 -99.5 -92.5s-81.5 -32.5 -127.5 -32.5c-66.667 0 -116.834 23.5 -150.501 70.5
s-45.167 104.167 -34.5 171.5c10.667 66.667 40.5 123.334 89.5 170.001s106.5 70 172.5 70c68 0 118.333 -23.667 151 -71s43.334 -105.333 32.001 -174zM120 268.999h356.002c1.33301 44 -12 81.833 -40 113.5s-65 47.5 -111 47.5
c-46.667 0 -89.834 -15.833 -129.501 -47.5s-64.834 -69.5 -75.501 -113.5zM403.002 713.999l58 -19l-147 -145l-35 17z" />
    <glyph glyph-name="ecircumflex" unicode="&#xea;" horiz-adv-x="510" 
d="M514 227l-401 -0.000976562c-10.667 -58 -1.16699 -105 28.5 -141s71.5 -54 125.5 -54c35.333 0 68.5 9.5 99.5 28.5s57.833 44.5 80.5 76.5l34 -22c-27.333 -40 -60.5 -70.833 -99.5 -92.5s-81.5 -32.5 -127.5 -32.5c-66.667 0 -116.834 23.5 -150.501 70.5
s-45.167 104.167 -34.5 171.5c10.667 66.667 40.5 123.334 89.5 170.001s106.5 70 172.5 70c68 0 118.333 -23.667 151 -71s43.334 -105.333 32.001 -174zM120 268.999h356.002c1.33301 44 -12 81.833 -40 113.5s-65 47.5 -111 47.5
c-46.667 0 -89.834 -15.833 -129.501 -47.5s-64.834 -69.5 -75.501 -113.5zM210.002 587.999l155 106l121 -106l-42 -29l-88 77l-114 -77z" />
    <glyph glyph-name="edieresis" unicode="&#xeb;" horiz-adv-x="510" 
d="M514 227l-401 -0.000976562c-10.667 -58 -1.16699 -105 28.5 -141s71.5 -54 125.5 -54c35.333 0 68.5 9.5 99.5 28.5s57.833 44.5 80.5 76.5l34 -22c-27.333 -40 -60.5 -70.833 -99.5 -92.5s-81.5 -32.5 -127.5 -32.5c-66.667 0 -116.834 23.5 -150.501 70.5
s-45.167 104.167 -34.5 171.5c10.667 66.667 40.5 123.334 89.5 170.001s106.5 70 172.5 70c68 0 118.333 -23.667 151 -71s43.334 -105.333 32.001 -174zM120 268.999h356.002c1.33301 44 -12 81.833 -40 113.5s-65 47.5 -111 47.5
c-46.667 0 -89.834 -15.833 -129.501 -47.5s-64.834 -69.5 -75.501 -113.5zM268.502 673.999c11 0 19.833 -3.83301 26.5 -11.5s9.16699 -17.167 7.5 -28.5s-7 -20.833 -16 -28.5s-19 -11.5 -30 -11.5s-19.833 4 -26.5 12s-9.16699 17.333 -7.5 28s7 20 16 28s19 12 30 12z
M455.502 673.999c11 0 19.833 -3.83301 26.5 -11.5s9.16699 -17.167 7.5 -28.5s-7 -20.833 -16 -28.5s-19 -11.5 -30 -11.5s-19.833 4 -26.5 12s-9.16699 17.333 -7.5 28s7 20 16 28s19 12 30 12z" />
    <glyph glyph-name="igrave" unicode="&#xec;" horiz-adv-x="234" 
d="M212 462l-73 -462h-45l73 462h45zM131 695l64 19l78 -147l-41 -17z" />
    <glyph glyph-name="iacute" unicode="&#xed;" horiz-adv-x="234" 
d="M212 462l-73 -462h-45l73 462h45zM265 714l58 -19l-147 -145l-35 17z" />
    <glyph glyph-name="icircumflex" unicode="&#xee;" horiz-adv-x="234" 
d="M212 462l-73 -462h-45l73 462h45zM72 588l155 106l121 -106l-42 -29l-88 77l-114 -77z" />
    <glyph glyph-name="idieresis" unicode="&#xef;" horiz-adv-x="234" 
d="M212 462l-73 -462h-45l73 462h45zM130.5 674c11 0 19.833 -3.83301 26.5 -11.5s9.16699 -17.167 7.5 -28.5s-7 -20.833 -16 -28.5s-19 -11.5 -30 -11.5s-19.833 4 -26.5 12s-9.16699 17.333 -7.5 28s7 20 16 28s19 12 30 12zM317.5 674c11 0 19.833 -3.83301 26.5 -11.5
s9.16699 -17.167 7.5 -28.5s-7 -20.833 -16 -28.5s-19 -11.5 -30 -11.5s-19.833 4 -26.5 12s-9.16699 17.333 -7.5 28s7 20 16 28s19 12 30 12z" />
    <glyph glyph-name="eth" unicode="&#xf0;" horiz-adv-x="547" 
d="M215 798l36.9951 30.002c44.667 -28.667 86 -60.334 124 -95.001l169 87l20 -33l-160 -82c58.667 -60.667 101.834 -128.834 129.501 -204.501s34.834 -155.834 21.501 -240.501c-7.33301 -46 -20.666 -86.667 -39.999 -122s-42.333 -63.5 -69 -84.5
s-55 -36.833 -85 -47.5s-60.667 -16 -92 -16c-66 0 -118.667 23.667 -158 71s-53.666 104 -42.999 170c10 65.333 42.333 122 97 170s116 72 184 72c62.667 0 115.334 -23.333 158.001 -70c-10.667 54 -26.5 102 -47.5 144s-54.167 87 -99.5 135l-159 -82l-20 34l149 75
c-27.333 26.667 -66 56.334 -116 89.001zM336.995 430.002c-54 0 -102.67 -19.668 -146.003 -59.001s-69.333 -86.333 -78 -141c-8 -53.333 3.5 -99.666 34.5 -138.999s73.167 -59 126.5 -59c56.667 0 107.334 19 152.001 57s71.334 85 80.001 141
c9.33301 56.667 -2.16699 104.167 -34.5 142.5s-77.166 57.5 -134.499 57.5z" />
    <glyph glyph-name="ntilde" unicode="&#xf1;" horiz-adv-x="490" 
d="M195 462l-10.9971 -71.998h2c17.333 26 39.166 46.167 65.499 60.5s54.5 21.5 84.5 21.5c56 0 92.667 -16.167 110 -48.5s21 -80.5 11 -144.5l-44 -279h-45l44 279c3.33301 18.667 5.33301 34.667 6 48s0 27 -2 41s-6.16699 25.167 -12.5 33.5s-16 15.166 -29 20.499
s-29.5 8 -49.5 8c-22 0 -42 -4.16699 -60 -12.5s-32.833 -18.833 -44.5 -31.5s-21.834 -28.334 -30.501 -47.001s-15.334 -36.667 -20.001 -54s-8.66699 -36.333 -12 -57l-36 -228h-45l73 462h45zM224.003 586.002l-27.001 22c10 18 23 33.167 39 45.5s32.333 18.5 49 18.5
c16 0 38.333 -6.33301 67 -19l15.5 -6.5l16 -7c3.66699 -1.66699 8.33398 -3.16699 14.001 -4.5s10.5 -2 14.5 -2c11.333 0 21.833 4 31.5 12s17.5 17.667 23.5 29l25 -22c-7.33301 -18 -19.666 -33.333 -36.999 -46s-35.333 -19 -54 -19c-11.333 0 -32 6.66699 -62 20
c-28.667 13.333 -50.334 20 -65.001 20c-20 0 -36.667 -13.667 -50 -41z" />
    <glyph glyph-name="ograve" unicode="&#xf2;" horiz-adv-x="547" 
d="M347 472c68 0 121.833 -23.167 161.5 -69.5s54 -103.5 43 -171.5s-43.5 -125.167 -97.5 -171.5s-115.333 -69.5 -184 -69.5c-66 0 -118.667 23.5 -158 70.5s-54 103.5 -44 169.5c10.667 66.667 43.167 123.667 97.5 171s114.833 71 181.5 71zM337 430
c-54 0 -102.67 -19.668 -146.003 -59.001s-69.333 -86.333 -78 -141c-8 -53.333 3.5 -99.666 34.5 -138.999s73.167 -59 126.5 -59c56.667 0 107.334 19 152.001 57s71.334 85 80.001 141c9.33301 56.667 -2.16699 104.167 -34.5 142.5s-77.166 57.5 -134.499 57.5z
M286.997 694.999l64 19l78 -147l-41 -17z" />
    <glyph glyph-name="oacute" unicode="&#xf3;" horiz-adv-x="547" 
d="M347 472c68 0 121.833 -23.167 161.5 -69.5s54 -103.5 43 -171.5s-43.5 -125.167 -97.5 -171.5s-115.333 -69.5 -184 -69.5c-66 0 -118.667 23.5 -158 70.5s-54 103.5 -44 169.5c10.667 66.667 43.167 123.667 97.5 171s114.833 71 181.5 71zM337 430
c-54 0 -102.67 -19.668 -146.003 -59.001s-69.333 -86.333 -78 -141c-8 -53.333 3.5 -99.666 34.5 -138.999s73.167 -59 126.5 -59c56.667 0 107.334 19 152.001 57s71.334 85 80.001 141c9.33301 56.667 -2.16699 104.167 -34.5 142.5s-77.166 57.5 -134.499 57.5z
M420.997 713.999l58 -19l-147 -145l-35 17z" />
    <glyph glyph-name="ocircumflex" unicode="&#xf4;" horiz-adv-x="547" 
d="M347 472c68 0 121.833 -23.167 161.5 -69.5s54 -103.5 43 -171.5s-43.5 -125.167 -97.5 -171.5s-115.333 -69.5 -184 -69.5c-66 0 -118.667 23.5 -158 70.5s-54 103.5 -44 169.5c10.667 66.667 43.167 123.667 97.5 171s114.833 71 181.5 71zM337 430
c-54 0 -102.67 -19.668 -146.003 -59.001s-69.333 -86.333 -78 -141c-8 -53.333 3.5 -99.666 34.5 -138.999s73.167 -59 126.5 -59c56.667 0 107.334 19 152.001 57s71.334 85 80.001 141c9.33301 56.667 -2.16699 104.167 -34.5 142.5s-77.166 57.5 -134.499 57.5z
M228.997 587.999l155 106l121 -106l-42 -29l-88 77l-114 -77z" />
    <glyph glyph-name="otilde" unicode="&#xf5;" horiz-adv-x="547" 
d="M347 472c68 0 121.833 -23.167 161.5 -69.5s54 -103.5 43 -171.5s-43.5 -125.167 -97.5 -171.5s-115.333 -69.5 -184 -69.5c-66 0 -118.667 23.5 -158 70.5s-54 103.5 -44 169.5c10.667 66.667 43.167 123.667 97.5 171s114.833 71 181.5 71zM337 430
c-54 0 -102.67 -19.668 -146.003 -59.001s-69.333 -86.333 -78 -141c-8 -53.333 3.5 -99.666 34.5 -138.999s73.167 -59 126.5 -59c56.667 0 107.334 19 152.001 57s71.334 85 80.001 141c9.33301 56.667 -2.16699 104.167 -34.5 142.5s-77.166 57.5 -134.499 57.5z
M251.997 585.999l-27.001 22c10 18 23 33.167 39 45.5s32.333 18.5 49 18.5c16 0 38.333 -6.33301 67 -19l15.5 -6.5l16 -7c3.66699 -1.66699 8.33398 -3.16699 14.001 -4.5s10.5 -2 14.5 -2c11.333 0 21.833 4 31.5 12s17.5 17.667 23.5 29l25 -22
c-7.33301 -18 -19.666 -33.333 -36.999 -46s-35.333 -19 -54 -19c-11.333 0 -32 6.66699 -62 20c-28.667 13.333 -50.334 20 -65.001 20c-20 0 -36.667 -13.667 -50 -41z" />
    <glyph glyph-name="odieresis" unicode="&#xf6;" horiz-adv-x="547" 
d="M347 472c68 0 121.833 -23.167 161.5 -69.5s54 -103.5 43 -171.5s-43.5 -125.167 -97.5 -171.5s-115.333 -69.5 -184 -69.5c-66 0 -118.667 23.5 -158 70.5s-54 103.5 -44 169.5c10.667 66.667 43.167 123.667 97.5 171s114.833 71 181.5 71zM337 430
c-54 0 -102.67 -19.668 -146.003 -59.001s-69.333 -86.333 -78 -141c-8 -53.333 3.5 -99.666 34.5 -138.999s73.167 -59 126.5 -59c56.667 0 107.334 19 152.001 57s71.334 85 80.001 141c9.33301 56.667 -2.16699 104.167 -34.5 142.5s-77.166 57.5 -134.499 57.5z
M286.497 673.999c11 0 19.833 -3.83301 26.5 -11.5s9.16699 -17.167 7.5 -28.5s-7 -20.833 -16 -28.5s-19 -11.5 -30 -11.5s-19.833 4 -26.5 12s-9.16699 17.333 -7.5 28s7 20 16 28s19 12 30 12zM473.497 673.999c11 0 19.833 -3.83301 26.5 -11.5
s9.16699 -17.167 7.5 -28.5s-7 -20.833 -16 -28.5s-19 -11.5 -30 -11.5s-19.833 4 -26.5 12s-9.16699 17.333 -7.5 28s7 20 16 28s19 12 30 12z" />
    <glyph glyph-name="divide" unicode="&#xf7;" 
d="M91 232l7 48h512l-7 -48h-512zM323 82c11.333 0 20.333 -4 27 -12s9.16699 -17.667 7.5 -29s-7.16699 -21 -16.5 -29s-19.666 -12 -30.999 -12s-20.333 4 -27 12s-9.16699 17.667 -7.5 29s7.16699 21 16.5 29s19.666 12 30.999 12zM391 512c11.333 0 20.333 -4 27 -12
s9.16699 -17.667 7.5 -29s-7.16699 -21 -16.5 -29s-19.666 -12 -30.999 -12s-20.333 4 -27 12s-9.16699 17.667 -7.5 29s7.16699 21 16.5 29s19.666 12 30.999 12z" />
    <glyph glyph-name="oslash" unicode="&#xf8;" horiz-adv-x="547" 
d="M136 108l322 278c-32 29.333 -72.333 44 -121 44c-54 0 -102.667 -19.667 -146 -59s-69.333 -86.333 -78 -141c-6.66699 -46 1 -86.667 23 -122zM482 357l-324.002 -276.999c30 -32 68.667 -48 116 -48c56.667 0 107.334 19 152.001 57s71.334 85 80.001 141
c8 49.333 0 91.666 -24 126.999zM30.998 17.001l69 60.001c-30 43.333 -40.667 94.333 -32 153c10.667 66.667 43.167 123.667 97.5 171s114.833 71 181.5 71c60 0 109 -18.333 147 -55l73 63l23 -29l-71 -62c31.333 -42.667 42.333 -95.334 33 -158.001
c-11.333 -68 -44 -125.167 -98 -171.5s-115.333 -69.5 -184 -69.5c-60 0 -109 20 -147 60l-70 -60z" />
    <glyph glyph-name="ugrave" unicode="&#xf9;" horiz-adv-x="472" 
d="M430 462h45.0049l-44 -277c-3.33301 -22 -6 -38.167 -8 -48.5s-6.5 -24 -13.5 -41s-16.167 -31.5 -27.5 -43.5c-18.667 -20 -41.167 -35.333 -67.5 -46s-53 -16 -80 -16s-52 5.33301 -75 16s-40.833 26 -53.5 46c-6.66699 12 -10.834 26.5 -12.501 43.5s-2 30.667 -1 41
s3.16699 26.5 6.5 48.5l44 277h45l-41 -261c-3.33301 -20.667 -5.5 -38.167 -6.5 -52.5s-0.5 -29.333 1.5 -45s6.5 -28.334 13.5 -38.001s17.667 -17.667 32 -24s32.166 -9.5 53.499 -9.5s40.166 3.16699 56.499 9.5s29.5 14.333 39.5 24s18.667 22.334 26 38.001
s12.666 30.667 15.999 45s6.66602 31.833 9.99902 52.5zM240.005 695l64 19l78 -147l-41 -17z" />
    <glyph glyph-name="uacute" unicode="&#xfa;" horiz-adv-x="472" 
d="M430 462h45.0049l-44 -277c-3.33301 -22 -6 -38.167 -8 -48.5s-6.5 -24 -13.5 -41s-16.167 -31.5 -27.5 -43.5c-18.667 -20 -41.167 -35.333 -67.5 -46s-53 -16 -80 -16s-52 5.33301 -75 16s-40.833 26 -53.5 46c-6.66699 12 -10.834 26.5 -12.501 43.5s-2 30.667 -1 41
s3.16699 26.5 6.5 48.5l44 277h45l-41 -261c-3.33301 -20.667 -5.5 -38.167 -6.5 -52.5s-0.5 -29.333 1.5 -45s6.5 -28.334 13.5 -38.001s17.667 -17.667 32 -24s32.166 -9.5 53.499 -9.5s40.166 3.16699 56.499 9.5s29.5 14.333 39.5 24s18.667 22.334 26 38.001
s12.666 30.667 15.999 45s6.66602 31.833 9.99902 52.5zM394.005 714l58 -19l-147 -145l-35 17z" />
    <glyph glyph-name="ucircumflex" unicode="&#xfb;" horiz-adv-x="472" 
d="M430 462h45.0049l-44 -277c-3.33301 -22 -6 -38.167 -8 -48.5s-6.5 -24 -13.5 -41s-16.167 -31.5 -27.5 -43.5c-18.667 -20 -41.167 -35.333 -67.5 -46s-53 -16 -80 -16s-52 5.33301 -75 16s-40.833 26 -53.5 46c-6.66699 12 -10.834 26.5 -12.501 43.5s-2 30.667 -1 41
s3.16699 26.5 6.5 48.5l44 277h45l-41 -261c-3.33301 -20.667 -5.5 -38.167 -6.5 -52.5s-0.5 -29.333 1.5 -45s6.5 -28.334 13.5 -38.001s17.667 -17.667 32 -24s32.166 -9.5 53.499 -9.5s40.166 3.16699 56.499 9.5s29.5 14.333 39.5 24s18.667 22.334 26 38.001
s12.666 30.667 15.999 45s6.66602 31.833 9.99902 52.5zM191.005 588l155 106l121 -106l-42 -29l-88 77l-114 -77z" />
    <glyph glyph-name="udieresis" unicode="&#xfc;" horiz-adv-x="472" 
d="M430 462h45.0049l-44 -277c-3.33301 -22 -6 -38.167 -8 -48.5s-6.5 -24 -13.5 -41s-16.167 -31.5 -27.5 -43.5c-18.667 -20 -41.167 -35.333 -67.5 -46s-53 -16 -80 -16s-52 5.33301 -75 16s-40.833 26 -53.5 46c-6.66699 12 -10.834 26.5 -12.501 43.5s-2 30.667 -1 41
s3.16699 26.5 6.5 48.5l44 277h45l-41 -261c-3.33301 -20.667 -5.5 -38.167 -6.5 -52.5s-0.5 -29.333 1.5 -45s6.5 -28.334 13.5 -38.001s17.667 -17.667 32 -24s32.166 -9.5 53.499 -9.5s40.166 3.16699 56.499 9.5s29.5 14.333 39.5 24s18.667 22.334 26 38.001
s12.666 30.667 15.999 45s6.66602 31.833 9.99902 52.5zM249.505 674c11 0 19.833 -3.83301 26.5 -11.5s9.16699 -17.167 7.5 -28.5s-7 -20.833 -16 -28.5s-19 -11.5 -30 -11.5s-19.833 4 -26.5 12s-9.16699 17.333 -7.5 28s7 20 16 28s19 12 30 12zM436.505 674
c11 0 19.833 -3.83301 26.5 -11.5s9.16699 -17.167 7.5 -28.5s-7 -20.833 -16 -28.5s-19 -11.5 -30 -11.5s-19.833 4 -26.5 12s-9.16699 17.333 -7.5 28s7 20 16 28s19 12 30 12z" />
    <glyph glyph-name="yacute" unicode="&#xfd;" horiz-adv-x="460" 
d="M214 -8l-148 470h47l131 -418l243 418h46l-426 -732h-46zM393 714l58 -19l-147 -145l-35 17z" />
    <glyph glyph-name="thorn" unicode="&#xfe;" horiz-adv-x="560" 
d="M369 430c-56.667 0 -104.334 -20.165 -143.001 -60.498s-62.667 -89.833 -72 -148.5c-8.66699 -54.667 1.16602 -99.834 29.499 -135.501s69.833 -53.5 124.5 -53.5c52.667 0 98.834 19 138.501 57s63.834 83.667 72.501 137c8.66699 55.333 -0.5 103.166 -27.5 143.499
s-67.833 60.5 -122.5 60.5zM135 80.002l-55.998 -350.001h-45l174 1095h45l-71 -446h2c21.333 28.667 49.666 51.334 84.999 68.001s70.666 25 105.999 25c68.667 0 120 -23.5 154 -70.5s45.667 -105.167 35 -174.5c-10.667 -68.667 -40.167 -125.334 -88.5 -170.001
s-106.833 -67 -175.5 -67c-36 0 -68.667 7.83301 -98 23.5s-51 37.834 -65 66.501h-2z" />
    <glyph glyph-name="ydieresis" unicode="&#xff;" horiz-adv-x="460" 
d="M214 -8l-148 470h47l131 -418l243 418h46l-426 -732h-46zM248.5 674c11 0 19.833 -3.83301 26.5 -11.5s9.16699 -17.167 7.5 -28.5s-7 -20.833 -16 -28.5s-19 -11.5 -30 -11.5s-19.833 4 -26.5 12s-9.16699 17.333 -7.5 28s7 20 16 28s19 12 30 12zM435.5 674
c11 0 19.833 -3.83301 26.5 -11.5s9.16699 -17.167 7.5 -28.5s-7 -20.833 -16 -28.5s-19 -11.5 -30 -11.5s-19.833 4 -26.5 12s-9.16699 17.333 -7.5 28s7 20 16 28s19 12 30 12z" />
    <glyph glyph-name="dotlessi" unicode="&#x131;" horiz-adv-x="234" 
d="M212 462l-73 -462h-45l73 462h45z" />
    <glyph glyph-name="Lslash" unicode="&#x141;" horiz-adv-x="327" 
d="M81 0l56 354l-90 -57l8 49l90 57l55 351h48l-50 -318l142 89l-8 -49l-142 -89l-54 -342h192l-7 -45h-240z" />
    <glyph glyph-name="lslash" unicode="&#x142;" horiz-adv-x="229" 
d="M92 0l62 391l-84 -54l8 45l83 54l62 389h45l-57 -357l84 53l-8 -45l-83 -53l-67 -423h-45z" />
    <glyph glyph-name="OE" unicode="&#x152;" horiz-adv-x="1193" 
d="M767 0l30.9971 194.001h-2c-40 -62.667 -94.167 -112.334 -162.5 -149.001s-138.166 -55 -209.499 -55c-48.667 0 -95.167 9.66699 -139.5 29s-81.833 46 -112.5 80c-32.667 36.667 -55.667 79 -69 127s-15.666 98.333 -6.99902 151c10.667 70 38.667 134.833 84 194.5
s100.833 106.667 166.5 141s133.834 51.5 204.501 51.5c70 0 132.833 -18.833 188.5 -56.5s93.5 -87.5 113.5 -149.5h2l31 196h360l-7 -45h-312l-43 -274h305l-7 -45h-305l-55 -345h312l-7 -45h-360zM542.997 719.001c-60.667 0 -119.999 -15.5 -177.999 -46.5
s-107 -72.833 -147 -125.5s-64.667 -109.334 -74 -170.001c-7.33301 -46 -5.33301 -90.333 6 -133s31.333 -79.667 60 -111c26.667 -30.667 59.5 -54.667 98.5 -72s80.5 -26 124.5 -26c45.333 0 91 9.33301 137 28s87.667 44.667 125 78
c72.667 65.333 116.334 144 131.001 236c9.33301 60.667 3.16602 117.334 -18.501 170.001s-55.834 94.5 -102.501 125.5s-100.667 46.5 -162 46.5z" />
    <glyph glyph-name="oe" unicode="&#x153;" horiz-adv-x="945" 
d="M949 227h-399.003c-11.333 -53.333 -2.16602 -99.166 27.501 -137.499s70.834 -57.5 123.501 -57.5c74.667 0 134.667 35.667 180 107l34 -23c-26 -40 -58.667 -71 -98 -93s-81.666 -33 -126.999 -33c-44 0 -82.5 12.5 -115.5 37.5s-54.167 57.833 -63.5 98.5
c-26 -40.667 -60.667 -73.5 -104 -98.5s-88 -37.5 -134 -37.5c-67.333 0 -121 23.167 -161 69.5s-54.667 103.166 -44 170.499c11.333 68 44.5 125.333 99.5 172s116.5 70 184.5 70c45.333 0 85.833 -12.167 121.5 -36.5s59.5 -56.833 71.5 -97.5
c22 42 52.833 74.833 92.5 98.5s82.5 35.5 128.5 35.5c69.333 0 120 -23.333 152 -70s42.333 -105 31 -175zM556.997 269h354c1.33301 44 -12 81.833 -40 113.5s-65 47.5 -111 47.5s-88.667 -15.833 -128 -47.5s-64.333 -69.5 -75 -113.5zM343.997 430
c-56.667 0 -106.999 -19.501 -150.999 -58.501s-70.667 -87.167 -80 -144.5c-8 -52 4 -97.5 36 -136.5s74.333 -58.5 127 -58.5c55.333 0 105.166 19.333 149.499 58s70.833 85.334 79.5 140.001c8.66699 54 -2.5 100.833 -33.5 140.5s-73.5 59.5 -127.5 59.5z" />
    <glyph glyph-name="Scaron" unicode="&#x160;" horiz-adv-x="544" 
d="M568 658l-38.0029 -27.998c-28 59.333 -74.333 89 -139 89c-40 0 -75.833 -14 -107.5 -42s-50.834 -62 -57.501 -102c-2 -14.667 -1.16699 -28.5 2.5 -41.5s8.33398 -23.667 14.001 -32s14.667 -17 27 -26s22.5 -15.833 30.5 -20.5s19.333 -10.667 34 -18l6 -3l132 -75
c51.333 -36 72 -86 62 -150c-9.33301 -61.333 -41.166 -113.166 -95.499 -155.499s-112.833 -63.5 -175.5 -63.5c-51.333 0 -94.333 14.667 -129 44s-57 68.666 -67 117.999l45 19c10 -42 28.333 -75.167 55 -99.5s62 -36.5 106 -36.5c50 0 96.167 17.333 138.5 52
s67.5 76.667 75.5 126c2 15.333 1 29.666 -3 42.999s-9 24.5 -15 33.5s-15.667 18.5 -29 28.5s-24.166 17.333 -32.499 22s-20.5 11 -36.5 19c-5.33301 3.33301 -9.33301 5.66602 -12 6.99902l-125 72c-46.667 32 -65.334 77 -56.001 135
c8.66699 56 33.834 101.833 75.501 137.5s90.834 53.5 147.501 53.5c38 0 72.167 -9.5 102.5 -28.5s51.833 -44.833 64.5 -77.5zM565.997 923.002l-155 -107l-121 107l43 28l88 -76l114 76z" />
    <glyph glyph-name="scaron" unicode="&#x161;" horiz-adv-x="375" 
d="M373 398l-41.9941 -19.998c-5.33301 16 -14.333 28.667 -27 38s-28 14 -46 14c-20 0 -39.333 -7.16699 -58 -21.5s-29.334 -31.166 -32.001 -50.499c-2.66699 -14.667 -0.666992 -27.334 6 -38.001s16.167 -19.334 28.5 -26.001s26 -12.667 41 -18s30 -11.5 45 -18.5
s28.333 -15.333 40 -25s20.334 -22.834 26.001 -39.501s6.5 -36.334 2.5 -59.001c-6.66699 -42 -26.334 -76.5 -59.001 -103.5s-70.334 -40.5 -113.001 -40.5c-38.667 0 -70.667 11 -96 33s-39.666 51.667 -42.999 89l46 14c4.66699 -29.333 15.167 -52.333 31.5 -69
s39.166 -25 68.499 -25s55.666 10.167 78.999 30.5s37.333 44.833 42 73.5c4 25.333 -0.666992 44.333 -14 57s-34 24 -62 34c-16 6 -28.333 11 -37 15s-19.334 9.83301 -32.001 17.5s-22.167 15.5 -28.5 23.5s-11.333 18.333 -15 31s-4.5 26.334 -2.5 41.001
c5.33301 34 22.166 62 50.499 84s59.833 33 94.5 33c23.333 0 45.166 -7 65.499 -21s33.833 -31.667 40.5 -53zM431.006 666.002l-154 -107l-122 107l43 28l88 -76l114 76z" />
    <glyph glyph-name="Ydieresis" unicode="&#x178;" horiz-adv-x="559" 
d="M306 322l-183 432h53l162 -382l282 382h53l-319 -432l-51 -322h-48zM345.5 931c11 0 19.832 -3.83301 26.499 -11.5s9.16699 -17.167 7.5 -28.5s-7.16699 -20.833 -16.5 -28.5s-19.5 -11.5 -30.5 -11.5s-19.667 4 -26 12s-8.66602 17.333 -6.99902 28s7 20 16 28
s19 12 30 12zM532.499 931c11 0 19.832 -3.83301 26.499 -11.5s9.16699 -17.167 7.5 -28.5s-7.16699 -20.833 -16.5 -28.5s-19.5 -11.5 -30.5 -11.5s-19.667 4 -26 12s-8.66602 17.333 -6.99902 28s7 20 16 28s19 12 30 12z" />
    <glyph glyph-name="Zcaron" unicode="&#x17d;" horiz-adv-x="568" 
d="M103 45h447l-7 -45h-531l572 709h-416l7 45h500zM580 923l-155 -107l-121 107l43 28l88 -76l114 76z" />
    <glyph glyph-name="zcaron" unicode="&#x17e;" horiz-adv-x="480" 
d="M105 42h375l-7 -42h-470l445 420h-317l6 42h411zM508 666l-154 -107l-122 107l43 28l88 -76l114 76z" />
    <glyph glyph-name="florin" unicode="&#x192;" 
d="M446 486l115.999 0.000976562l-16 -45h-115l-132 -380l-9 -26l-10 -28l-10 -26.5c-4.66699 -12.333 -8.66699 -21.333 -12 -27l-14 -24.5c-6 -10.667 -11.5 -18.5 -16.5 -23.5s-11.333 -11 -19 -18s-15.334 -12.167 -23.001 -15.5s-16.5 -6.16602 -26.5 -8.49902
s-20.333 -3.5 -31 -3.5c-24 0 -49.667 5.66699 -77 17l15 42c22.667 -9.33301 44.334 -14 65.001 -14c28.667 0 49.667 8.33301 63 25c14.667 19.333 30.334 52.666 47.001 99.999l144 411h-69l16 45h68l74 214c16.667 46 31 76.667 43 92c12 14.667 27.333 26 46 34
s37.334 12 56.001 12c21.333 0 42 -5 62 -15l-15 -41c-16 7.33301 -32.667 11 -50 11c-10.667 0 -20.334 -1.16699 -29.001 -3.5s-16.334 -6.33301 -23.001 -12s-12.167 -10.834 -16.5 -15.501s-8.66602 -11.834 -12.999 -21.501s-7.5 -17.167 -9.5 -22.5
s-5 -14.166 -9 -26.499l-8 -24.5z" />
    <glyph glyph-name="circumflex" unicode="&#x2c6;" horiz-adv-x="426" 
d="M168 588l155 106l121 -106l-42 -29l-88 77l-114 -77z" />
    <glyph glyph-name="caron" unicode="&#x2c7;" horiz-adv-x="426" 
d="M456 666l-154 -107l-122 107l43 28l88 -76l114 76z" />
    <glyph glyph-name="breve" unicode="&#x2d8;" horiz-adv-x="434" 
d="M182 674h43.999c3.33301 -20.667 13 -36 29 -46s35.667 -15 59 -15c52.667 0 88.667 20.333 108 61h43c-9.33301 -33.333 -29.166 -59.333 -59.499 -78s-63.166 -28 -98.499 -28s-65.333 9.33301 -90 28s-36.334 44.667 -35.001 78z" />
    <glyph glyph-name="dotaccent" unicode="&#x2d9;" horiz-adv-x="313" 
d="M263.5 674c11 0 19.833 -3.83301 26.5 -11.5s9.16699 -17.167 7.5 -28.5s-7 -20.833 -16 -28.5s-19 -11.5 -30 -11.5s-19.833 4 -26.5 12s-9.16699 17.333 -7.5 28s7 20 16 28s19 12 30 12z" />
    <glyph glyph-name="ring" unicode="&#x2da;" horiz-adv-x="324" 
d="M275 714c24 0 43.167 -8.5 57.5 -25.5s19.666 -37.5 15.999 -61.5s-15.334 -44.5 -35.001 -61.5s-41.5 -25.5 -65.5 -25.5s-43.167 8.5 -57.5 25.5s-19.666 37.5 -15.999 61.5s15.334 44.5 35.001 61.5s41.5 25.5 65.5 25.5zM268.5 674c-13 0 -24.833 -4.5 -35.5 -13.5
s-17 -20 -19 -33s0.833008 -24.167 8.5 -33.5s18 -14 31 -14s24.833 4.66699 35.5 14s17 20.333 19 33s-0.833008 23.667 -8.5 33s-18 14 -31 14z" />
    <glyph glyph-name="ogonek" unicode="&#x2db;" horiz-adv-x="321" 
d="M153 2l43 -0.000976562v-2c-57.333 -37.333 -88.666 -72.333 -93.999 -105c-2.66699 -19.333 1.66602 -34 12.999 -44s26.666 -15 45.999 -15c13.333 0 33.333 4 60 12l-17 -44c-21.333 -6 -39 -9 -53 -9c-29.333 0 -53.333 8.83301 -72 26.5s-25.667 40.834 -21 69.501
c6.66699 41.333 38.334 78.333 95.001 111z" />
    <glyph glyph-name="tilde" unicode="&#x2dc;" horiz-adv-x="439" 
d="M198 586l-27.001 22c10 18 23 33.167 39 45.5s32.333 18.5 49 18.5c16 0 38.333 -6.33301 67 -19l15.5 -6.5l16 -7c3.66699 -1.66699 8.33398 -3.16699 14.001 -4.5s10.5 -2 14.5 -2c11.333 0 21.833 4 31.5 12s17.5 17.667 23.5 29l25 -22
c-7.33301 -18 -19.666 -33.333 -36.999 -46s-35.333 -19 -54 -19c-11.333 0 -32 6.66699 -62 20c-28.667 13.333 -50.334 20 -65.001 20c-20 0 -36.667 -13.667 -50 -41z" />
    <glyph glyph-name="hungarumlaut" unicode="&#x2dd;" horiz-adv-x="446" 
d="M290 714l58 -19l-147 -145l-35 17zM423 714l58 -19l-147 -145l-35 17z" />
    <glyph glyph-name="mu" unicode="&#x3bc;" horiz-adv-x="472" 
d="M72 -270h-44.999l116 732h45l-36 -228c-4 -24 -6 -46.5 -6 -67.5s2.33301 -42.333 7 -64s14.5 -38.834 29.5 -51.501s34.5 -19 58.5 -19c21.333 0 40.166 3.16699 56.499 9.5s29.5 14.333 39.5 24s18.667 22.334 26 38.001s12.666 30.667 15.999 45
s6.66602 31.833 9.99902 52.5l41 261h45l-44 -277c-3.33301 -22 -6 -38.167 -8 -48.5s-6.5 -24 -13.5 -41s-16.167 -31.5 -27.5 -43.5c-18.667 -20 -41.167 -35.333 -67.5 -46s-53.166 -16 -80.499 -16c-22.667 0 -44.667 7.33301 -66 22s-34.666 34.667 -39.999 60h-2z" />
    <glyph glyph-name="endash" unicode="&#x2013;" horiz-adv-x="500" 
d="M54 342h500l-7 -45h-500z" />
    <glyph glyph-name="emdash" unicode="&#x2014;" horiz-adv-x="1000" 
d="M184 342h740l-7 -45h-740z" />
    <glyph glyph-name="quoteleft" unicode="&#x2018;" horiz-adv-x="259" 
d="M201 524l-43 13l119 227l28 -11z" />
    <glyph glyph-name="quoteright" unicode="&#x2019;" horiz-adv-x="259" 
d="M262 764l43 -13l-119 -227l-28 11z" />
    <glyph glyph-name="quotesinglbase" unicode="&#x201a;" horiz-adv-x="259" 
d="M153 74l43 -14l-119 -226l-29 11z" />
    <glyph glyph-name="quotedblleft" unicode="&#x201c;" horiz-adv-x="390" 
d="M332 524l-43 13l119 227l28 -11zM201 524l-43 13l119 227l28 -11z" />
    <glyph glyph-name="quotedblright" unicode="&#x201d;" horiz-adv-x="390" 
d="M262 764l43 -13l-119 -227l-28 11zM393 764l43 -13l-119 -227l-28 11z" />
    <glyph glyph-name="quotedblbase" unicode="&#x201e;" horiz-adv-x="390" 
d="M153 74l43 -14l-119 -226l-29 11zM284 74l43 -14l-119 -226l-29 11z" />
    <glyph glyph-name="dagger" unicode="&#x2020;" 
d="M405 754h48l-31 -199h181l-7 -45h-181l-109 -688h-48l109 688h-181l7 45h181z" />
    <glyph glyph-name="daggerdbl" unicode="&#x2021;" 
d="M405 754h48l-31 -199h181l-7 -45h-181l-68 -428h181l-7 -45h-181l-34 -215h-48l34 215h-181l7 45h181l68 428h-181l7 45h181z" />
    <glyph glyph-name="bullet" unicode="&#x2022;" 
d="M400.5 566c53.667 0 95.501 -18.333 125.501 -55s41 -81.334 33 -134.001c-8.66699 -52 -33.834 -96.333 -75.501 -133s-89.167 -55 -142.5 -55s-95.333 18.333 -126 55s-41.667 81 -33 133c8 52.667 33 97.334 75 134.001s89.833 55 143.5 55z" />
    <glyph glyph-name="ellipsis" unicode="&#x2026;" horiz-adv-x="1000" 
d="M179 75c11.333 0 20.333 -4 27 -12s9.16699 -17.667 7.5 -29s-7.16699 -21 -16.5 -29s-19.666 -12 -30.999 -12s-20.333 4 -27 12s-9.16699 17.667 -7.5 29s7.16699 21 16.5 29s19.666 12 30.999 12zM512 75c11.333 0 20.333 -4 27 -12s9.16699 -17.667 7.5 -29
s-7.16699 -21 -16.5 -29s-19.666 -12 -30.999 -12s-20.333 4 -27 12s-9.16699 17.667 -7.5 29s7.16699 21 16.5 29s19.666 12 30.999 12zM845 75c11.333 0 20.333 -4 27 -12s9.16699 -17.667 7.5 -29s-7.16699 -21 -16.5 -29s-19.666 -12 -30.999 -12s-20.333 4 -27 12
s-9.16699 17.667 -7.5 29s7.16699 21 16.5 29s19.666 12 30.999 12z" />
    <glyph glyph-name="perthousand" unicode="&#x2030;" horiz-adv-x="1034" 
d="M899.5 289c43 0 76.834 -14 101.501 -42s33.667 -63.667 27 -107c-6.66699 -42 -26.834 -77 -60.501 -105s-71.834 -42 -114.501 -42s-76.5 14 -101.5 42s-34.167 63 -27.5 105c6.66699 43.333 26.834 79 60.501 107s72 42 115 42zM893.001 247
c-30 0 -57.502 -10.333 -82.502 -31s-39.833 -46 -44.5 -76c-4.66699 -28.667 2.33301 -53.334 21 -74.001s42.834 -31 72.501 -31s57 10.333 82 31s39.833 45.334 44.5 74.001c4.66699 30 -2.16602 55.333 -20.499 76s-42.5 31 -72.5 31zM300.499 761
c43 0 76.832 -14 101.499 -42s33.667 -63.667 27 -107c-6.66699 -42 -27 -77 -61 -105s-72.167 -42 -114.5 -42s-76 14 -101 42s-34.167 63 -27.5 105c6.66699 43.333 26.834 79 60.501 107s72 42 115 42zM293.998 719c-30 0 -57.502 -10.333 -82.502 -31
s-39.833 -46 -44.5 -76c-4.66699 -28.667 2.33301 -53.334 21 -74.001s42.834 -31 72.501 -31s57 10.333 82 31s39.833 45.334 44.5 74.001c4.66699 30 -2.16602 55.333 -20.499 76s-42.5 31 -72.5 31zM659.996 771l30 -17l-570 -771l-28 18zM529.496 289
c43 0 76.834 -14 101.501 -42s33.667 -63.667 27 -107c-6.66699 -42 -26.834 -77 -60.501 -105s-71.834 -42 -114.501 -42s-76.5 14 -101.5 42s-34.167 63 -27.5 105c6.66699 43.333 26.834 79 60.501 107s72 42 115 42zM522.997 247c-30 0 -57.502 -10.333 -82.502 -31
s-39.833 -46 -44.5 -76c-4.66699 -28.667 2.33301 -53.334 21 -74.001s42.834 -31 72.501 -31s57 10.333 82 31s39.833 45.334 44.5 74.001c4.66699 30 -2.16602 55.333 -20.499 76s-42.5 31 -72.5 31z" />
    <glyph glyph-name="guilsinglleft" unicode="&#x2039;" horiz-adv-x="277" 
d="M140 320l98 -142l-33 -27l-119 169l172 169l25 -27z" />
    <glyph glyph-name="guilsinglright" unicode="&#x203a;" horiz-adv-x="277" 
d="M95 178l144 142l-99 142l33 27l120 -169l-173 -169z" />
    <glyph glyph-name="fraction" unicode="&#x2044;" horiz-adv-x="129" 
d="M394 772l29 -18l-569 -771l-29 18z" />
    <glyph glyph-name="Euro" unicode="&#x20ac;" 
d="M720 685c-46.667 52.667 -111.666 79.001 -194.999 79.001c-87.333 0 -164.666 -31.667 -231.999 -95c-61.333 -58.667 -105 -134.334 -131 -227.001h-70l-21 -45h80l-3 -21c-2 -12 -4.33301 -30 -7 -54h-68l-21 -45h88c1.33301 -84.667 23.666 -153 66.999 -205
c46 -54.667 111.667 -82 197 -82c45.333 0 81.666 3.66699 108.999 11c28 8.66699 58 24 90 46l10 58c-31.333 -25.333 -58.333 -42.333 -81 -51c-31.333 -12.667 -72 -19 -122 -19c-70 0 -124.667 23.333 -164 70c-35.333 43.333 -54.333 100.666 -57 171.999h343l21 45
h-364c2 22.667 4 39.334 6 50.001l4 25h389l21 45h-399c24 89.333 64 158.333 120 207c52.667 46.667 113.667 70 183 70c45.333 0 81.5 -6.5 108.5 -19.5s51.833 -35.167 74.5 -66.5z" />
    <glyph glyph-name="trademark" unicode="&#x2122;" horiz-adv-x="940" 
d="M497 754l-6 -42h-139l-60 -379h-42l60 379h-139l6 42h320zM580 754h72l86 -327h2l190 327h72l-66 -421h-42l60 379h-4l-225 -379h-2l-103 379h-4l-60 -379h-42z" />
    <glyph glyph-name="minus" unicode="&#x2212;" 
d="M91 232l7 48h512l-7 -48h-512z" />
    <glyph glyph-name="fi" unicode="&#xfb01;" horiz-adv-x="475" 
d="M453 462l-73 -462h-45l73 462h45zM462 657c11.333 0 20.333 -4 27 -12s9.33398 -17.667 8.00098 -29c-2 -11.333 -7.66699 -21 -17 -29s-19.666 -12 -30.999 -12s-20.333 4 -27 12s-9 17.667 -7 29c1.33301 11.333 6.66602 21 15.999 29s19.666 12 30.999 12zM189 420
l-66.999 -420.002h-45l67 420h-51l6 42h51l33 207c8.66699 54 20.667 91.667 36 113c13.333 18 29.833 31.833 49.5 41.5s40.5 14.5 62.5 14.5c14.667 0 27.667 -2.33301 39 -7l-7 -41c-23.333 4 -35.333 6 -36 6c-14.667 0 -27.834 -3.16699 -39.501 -9.5
s-20.667 -13.333 -27 -21s-12 -18.667 -17 -33s-8.5 -26.166 -10.5 -35.499s-4 -21.666 -6 -36.999l-32 -198h116l-6 -42h-116z" />
    <glyph glyph-name="fl" unicode="&#xfb02;" horiz-adv-x="439" 
d="M189 420l-66.999 -420.002h-45l67 420h-51l6 42h51l33 207c8.66699 54 20.667 91.667 36 113c13.333 18 29.833 31.833 49.5 41.5s40.5 14.5 62.5 14.5c14.667 0 27.667 -2.33301 39 -7l-7 -41c-23.333 4 -35.333 6 -36 6c-14.667 0 -27.834 -3.16699 -39.501 -9.5
s-20.667 -13.333 -27 -21s-12 -18.667 -17 -33s-8.5 -26.166 -10.5 -35.499s-4 -21.666 -6 -36.999l-32 -198h116l-6 -42h-116zM493.001 824.998l-131 -825h-45l131 825h45z" />
    <glyph glyph-name=".null" horiz-adv-x="0" 
 />
    <glyph glyph-name="nonmarkingreturn" horiz-adv-x="333" 
 />
    <glyph glyph-name="hyphen" horiz-adv-x="190" 
d="M54 342h190l-7 -45h-190z" />
    <glyph glyph-name="oldcurrency" 
d="M147 498l42 36l35 -42c31.333 20 60.333 34.667 87 44s55.5 14 86.5 14s58.333 -4.66699 82 -14s47.834 -24 72.501 -44l49 42l30 -36l-46 -40c14 -29.333 23.167 -56 27.5 -80s4.33301 -50 0 -78s-12.5 -54 -24.5 -78s-30 -50.667 -54 -80l34 -40l-42 -36l-35 42
c-31.333 -20 -60.333 -34.667 -87 -44s-55.5 -14 -86.5 -14s-58.333 4.66699 -82 14s-47.834 24 -72.501 44l-49 -42l-30 36l46 40c-14 29.333 -23.167 56 -27.5 80s-4.33301 50 0 78s12.5 54 24.5 78s30 50.667 54 80zM390 502c-59.333 -1.33301 -112 -21.166 -158 -59.499
s-73 -85.833 -81 -142.5c-8 -54.667 5.16699 -102 39.5 -142s79.5 -60 135.5 -60s107.333 20 154 60s75 87.333 85 142c10 56.667 -2.16699 104.167 -36.5 142.5s-80.5 58.166 -138.5 59.499z" />
    </font>
</defs>
</svg>
